G04 Layer: TopSilkscreenLayer*
G04 EasyEDA v6.5.44, 2024-08-09 16:29:29*
G04 6a14bbe4783e4c45b3198a44848b54db,9d7ba2091113474d8fe43b4f46ca5270,10*
G04 Gerber Generator version 0.2*
G04 Scale: 100 percent, Rotated: No, Reflected: No *
G04 Dimensions in millimeters *
G04 leading zeros omitted , absolute positions ,4 integer and 5 decimal *
%FSLAX45Y45*%
%MOMM*%

%ADD10C,0.4030*%
%ADD11C,0.2030*%
%ADD12C,0.1524*%
%ADD13C,0.2540*%

%LPD*%
G36*
X7841132Y2916275D02*
G01*
X7827721Y2916021D01*
X7814056Y2915158D01*
X7800187Y2913684D01*
X7787233Y2911754D01*
X7774533Y2909417D01*
X7762036Y2906674D01*
X7749794Y2903423D01*
X7737754Y2899765D01*
X7725918Y2895701D01*
X7714335Y2891180D01*
X7702956Y2886202D01*
X7691831Y2880817D01*
X7680909Y2875026D01*
X7670292Y2868828D01*
X7659827Y2862173D01*
X7649667Y2855112D01*
X7639761Y2847594D01*
X7630058Y2839720D01*
X7620660Y2831388D01*
X7611465Y2822651D01*
X7602575Y2813507D01*
X7593939Y2803956D01*
X7585557Y2794050D01*
X7577429Y2783687D01*
X7569606Y2772918D01*
X7562037Y2761742D01*
X7553299Y2747772D01*
X7548321Y2739136D01*
X7540955Y2724150D01*
X7531658Y2703017D01*
X7518196Y2670505D01*
X7468362Y2545994D01*
X7389266Y2345994D01*
X7382764Y2330602D01*
X7380071Y2324963D01*
X7377684Y2320544D01*
X7375448Y2317292D01*
X7373264Y2315006D01*
X7371080Y2313635D01*
X7368794Y2313025D01*
X7366355Y2313076D01*
X7363612Y2313686D01*
X7334758Y2324303D01*
X7333488Y2334768D01*
X7332472Y2340508D01*
X7330897Y2345334D01*
X7328814Y2349296D01*
X7326325Y2352497D01*
X7323531Y2354884D01*
X7320381Y2356561D01*
X7317079Y2357475D01*
X7313574Y2357678D01*
X7310018Y2357221D01*
X7306411Y2356104D01*
X7302855Y2354376D01*
X7299401Y2352040D01*
X7296099Y2349093D01*
X7293000Y2345639D01*
X7290257Y2341626D01*
X7287818Y2337104D01*
X7285837Y2332177D01*
X7284364Y2326741D01*
X7283399Y2320899D01*
X7283094Y2314651D01*
X7283450Y2308707D01*
X7284567Y2303576D01*
X7286345Y2299157D01*
X7288733Y2295550D01*
X7291628Y2292756D01*
X7294981Y2290826D01*
X7298690Y2289810D01*
X7302703Y2289708D01*
X7306919Y2290572D01*
X7311339Y2292400D01*
X7315860Y2295245D01*
X7320381Y2299106D01*
X7327696Y2306218D01*
X7354620Y2296922D01*
X7358430Y2295296D01*
X7361275Y2293569D01*
X7363104Y2291537D01*
X7363968Y2288946D01*
X7363917Y2285542D01*
X7363002Y2281224D01*
X7361224Y2275687D01*
X7347102Y2240026D01*
X7340752Y2225090D01*
X7336180Y2215388D01*
X7334503Y2212441D01*
X7333183Y2210663D01*
X7332218Y2210104D01*
X7325258Y2210765D01*
X7318146Y2212644D01*
X7311237Y2215438D01*
X7304786Y2219045D01*
X7299198Y2223160D01*
X7294829Y2227630D01*
X7291933Y2232202D01*
X7290866Y2236673D01*
X7290409Y2242312D01*
X7289190Y2247036D01*
X7287158Y2250795D01*
X7284567Y2253640D01*
X7281468Y2255621D01*
X7277912Y2256739D01*
X7274052Y2257044D01*
X7269988Y2256485D01*
X7265822Y2255164D01*
X7261656Y2253081D01*
X7257542Y2250236D01*
X7253681Y2246680D01*
X7250074Y2242413D01*
X7246874Y2237486D01*
X7244181Y2231847D01*
X7242098Y2225649D01*
X7240930Y2219960D01*
X7240574Y2214575D01*
X7240981Y2209546D01*
X7242048Y2204974D01*
X7243724Y2200859D01*
X7245858Y2197252D01*
X7248499Y2194204D01*
X7251496Y2191766D01*
X7254798Y2189988D01*
X7258303Y2188921D01*
X7262012Y2188616D01*
X7265822Y2189124D01*
X7269581Y2190445D01*
X7273340Y2192680D01*
X7276947Y2195880D01*
X7280351Y2200046D01*
X7283348Y2201621D01*
X7288733Y2201976D01*
X7295642Y2201316D01*
X7303312Y2199843D01*
X7310932Y2197709D01*
X7317638Y2195169D01*
X7322718Y2192375D01*
X7325309Y2189530D01*
X7325258Y2187854D01*
X7323124Y2180183D01*
X7318908Y2168296D01*
X7313320Y2153920D01*
X7307122Y2138883D01*
X7301026Y2124964D01*
X7295794Y2113940D01*
X7293711Y2110028D01*
X7292136Y2107539D01*
X7291120Y2106676D01*
X7286904Y2107184D01*
X7281722Y2108504D01*
X7276033Y2110486D01*
X7270292Y2112924D01*
X7264958Y2115515D01*
X7260539Y2118156D01*
X7257440Y2120595D01*
X7256221Y2122576D01*
X7255154Y2129688D01*
X7253731Y2135733D01*
X7251953Y2140712D01*
X7249769Y2144725D01*
X7247128Y2147773D01*
X7244029Y2149906D01*
X7240473Y2151176D01*
X7236358Y2151583D01*
X7231481Y2150973D01*
X7226909Y2149195D01*
X7222591Y2146503D01*
X7218629Y2142896D01*
X7215022Y2138629D01*
X7211872Y2133752D01*
X7209231Y2128520D01*
X7207097Y2122932D01*
X7205573Y2117242D01*
X7204608Y2111552D01*
X7204354Y2106015D01*
X7204811Y2100732D01*
X7205243Y2099005D01*
X7487107Y2099005D01*
X7487666Y2103018D01*
X7489190Y2108301D01*
X7512558Y2173528D01*
X7515504Y2180386D01*
X7516571Y2181910D01*
X7517434Y2182622D01*
X7518349Y2182774D01*
X7519720Y2182266D01*
X7521549Y2180894D01*
X7523632Y2178913D01*
X7525664Y2176424D01*
X7529220Y2171446D01*
X7532166Y2166569D01*
X7534554Y2161844D01*
X7536332Y2157069D01*
X7537551Y2152192D01*
X7538212Y2147163D01*
X7538364Y2141829D01*
X7537907Y2136140D01*
X7536942Y2130044D01*
X7535418Y2123389D01*
X7533386Y2116124D01*
X7527645Y2098751D01*
X7525054Y2091740D01*
X7522768Y2087016D01*
X7520431Y2084171D01*
X7517638Y2083003D01*
X7514132Y2083257D01*
X7509560Y2084628D01*
X7497216Y2089200D01*
X7492593Y2091334D01*
X7489444Y2093468D01*
X7487666Y2095906D01*
X7487107Y2099005D01*
X7205243Y2099005D01*
X7206030Y2095855D01*
X7208012Y2091588D01*
X7210907Y2088032D01*
X7214666Y2085289D01*
X7222185Y2083612D01*
X7230770Y2085086D01*
X7238695Y2089150D01*
X7244130Y2095144D01*
X7246315Y2096617D01*
X7250430Y2097176D01*
X7255865Y2096871D01*
X7262063Y2095906D01*
X7268565Y2094280D01*
X7274712Y2092198D01*
X7279995Y2089708D01*
X7283907Y2087016D01*
X7283958Y2085695D01*
X7282027Y2078431D01*
X7277912Y2066543D01*
X7272477Y2052015D01*
X7266330Y2036572D01*
X7260336Y2022246D01*
X7255154Y2010816D01*
X7251598Y2004161D01*
X7250633Y2003247D01*
X7244842Y2003806D01*
X7238949Y2005330D01*
X7233259Y2007616D01*
X7228027Y2010562D01*
X7223506Y2013966D01*
X7219950Y2017674D01*
X7217613Y2021535D01*
X7216749Y2025294D01*
X7216394Y2030628D01*
X7215479Y2035200D01*
X7214006Y2039061D01*
X7212025Y2042210D01*
X7209637Y2044649D01*
X7206894Y2046376D01*
X7203897Y2047493D01*
X7200646Y2047951D01*
X7197242Y2047798D01*
X7193737Y2047087D01*
X7190181Y2045716D01*
X7186625Y2043836D01*
X7183221Y2041398D01*
X7179919Y2038400D01*
X7176820Y2034895D01*
X7174026Y2030933D01*
X7171537Y2026462D01*
X7169454Y2021586D01*
X7167829Y2016252D01*
X7166711Y2010460D01*
X7166305Y2003450D01*
X7167067Y1997252D01*
X7168845Y1991868D01*
X7171436Y1987346D01*
X7174788Y1983841D01*
X7178700Y1981403D01*
X7183069Y1980031D01*
X7187692Y1979828D01*
X7192518Y1980844D01*
X7197394Y1983181D01*
X7202119Y1986889D01*
X7206589Y1991969D01*
X7209231Y1994509D01*
X7212939Y1995170D01*
X7219289Y1993798D01*
X7237018Y1987702D01*
X7239609Y1986483D01*
X7241489Y1985060D01*
X7242556Y1983181D01*
X7242911Y1980742D01*
X7242556Y1977491D01*
X7241772Y1974596D01*
X7444130Y1974596D01*
X7444282Y1977389D01*
X7445095Y1981250D01*
X7448803Y1993239D01*
X7470902Y2056333D01*
X7473492Y2062683D01*
X7475829Y2067356D01*
X7478014Y2070557D01*
X7480300Y2072436D01*
X7482840Y2073198D01*
X7485735Y2072995D01*
X7489240Y2072030D01*
X7508392Y2064816D01*
X7513116Y2062632D01*
X7513370Y2062175D01*
X7513167Y2059939D01*
X7511592Y2054352D01*
X7501991Y2026310D01*
X7483652Y1974799D01*
X7481062Y1968246D01*
X7478572Y1963928D01*
X7475728Y1961591D01*
X7472019Y1961083D01*
X7467041Y1962200D01*
X7446975Y1970278D01*
X7445502Y1971243D01*
X7444536Y1972614D01*
X7444130Y1974596D01*
X7241772Y1974596D01*
X7239508Y1967636D01*
X7225182Y1931466D01*
X7218883Y1916175D01*
X7216495Y1910842D01*
X7214412Y1906828D01*
X7212533Y1903984D01*
X7210755Y1902206D01*
X7208926Y1901342D01*
X7206945Y1901189D01*
X7204659Y1901596D01*
X7198766Y1903526D01*
X7188352Y1907387D01*
X7182662Y1910689D01*
X7180021Y1914956D01*
X7177531Y1928215D01*
X7175500Y1933600D01*
X7172807Y1937867D01*
X7169556Y1941017D01*
X7165898Y1943100D01*
X7161834Y1944065D01*
X7157567Y1943912D01*
X7153148Y1942642D01*
X7148677Y1940204D01*
X7144258Y1936648D01*
X7139990Y1931873D01*
X7136028Y1925980D01*
X7133336Y1920849D01*
X7131303Y1915769D01*
X7129881Y1910791D01*
X7129068Y1905965D01*
X7128814Y1901342D01*
X7129068Y1896973D01*
X7129780Y1892858D01*
X7130948Y1889099D01*
X7132574Y1885696D01*
X7134555Y1882698D01*
X7136841Y1880209D01*
X7139482Y1878177D01*
X7142378Y1876755D01*
X7145477Y1875891D01*
X7148830Y1875688D01*
X7152335Y1876145D01*
X7155942Y1877364D01*
X7159701Y1879346D01*
X7163511Y1882139D01*
X7167321Y1885848D01*
X7173569Y1892503D01*
X7194296Y1884781D01*
X7198969Y1882495D01*
X7201966Y1880514D01*
X7203084Y1879041D01*
X7199934Y1869287D01*
X7190476Y1842719D01*
X7398003Y1842719D01*
X7398054Y1845614D01*
X7398613Y1849374D01*
X7399781Y1854098D01*
X7403896Y1867103D01*
X7419746Y1911553D01*
X7433005Y1949551D01*
X7436459Y1951837D01*
X7443114Y1950872D01*
X7458049Y1945792D01*
X7463231Y1943811D01*
X7465161Y1942744D01*
X7466584Y1941474D01*
X7467600Y1939899D01*
X7468158Y1937867D01*
X7468209Y1935327D01*
X7467803Y1932076D01*
X7466888Y1928063D01*
X7463536Y1917141D01*
X7438847Y1847900D01*
X7436053Y1841093D01*
X7433665Y1836064D01*
X7431430Y1832610D01*
X7429195Y1830527D01*
X7426807Y1829562D01*
X7424115Y1829562D01*
X7420914Y1830324D01*
X7403287Y1836470D01*
X7401204Y1837537D01*
X7399629Y1838807D01*
X7398562Y1840484D01*
X7398003Y1842719D01*
X7190476Y1842719D01*
X7167321Y1779930D01*
X7108561Y1626819D01*
X7320991Y1626819D01*
X7321245Y1631086D01*
X7322820Y1637182D01*
X7363815Y1753920D01*
X7378801Y1795932D01*
X7383170Y1807616D01*
X7386066Y1814728D01*
X7387894Y1818335D01*
X7389164Y1819656D01*
X7390333Y1819859D01*
X7396276Y1818639D01*
X7411110Y1814271D01*
X7415225Y1813255D01*
X7418324Y1812036D01*
X7419492Y1811223D01*
X7420406Y1810156D01*
X7421016Y1808784D01*
X7421321Y1807057D01*
X7421321Y1804873D01*
X7421016Y1802180D01*
X7419390Y1794967D01*
X7416342Y1784959D01*
X7405725Y1754225D01*
X7372858Y1661261D01*
X7362647Y1633220D01*
X7358938Y1624330D01*
X7355840Y1618284D01*
X7354366Y1616202D01*
X7352995Y1614678D01*
X7351623Y1613611D01*
X7350252Y1613052D01*
X7348829Y1612849D01*
X7347305Y1612950D01*
X7343851Y1614017D01*
X7334554Y1617878D01*
X7328865Y1619961D01*
X7324699Y1621790D01*
X7322108Y1623923D01*
X7320991Y1626819D01*
X7108561Y1626819D01*
X7067143Y1520901D01*
X7044537Y1463954D01*
X7009177Y1376324D01*
X7232040Y1376324D01*
X7232446Y1379778D01*
X7233462Y1384147D01*
X7237222Y1396187D01*
X7303820Y1584299D01*
X7308545Y1596745D01*
X7311542Y1603298D01*
X7312507Y1604721D01*
X7313269Y1605178D01*
X7335774Y1597558D01*
X7341108Y1595526D01*
X7342936Y1594307D01*
X7344257Y1592783D01*
X7344968Y1590802D01*
X7345172Y1588211D01*
X7344765Y1584909D01*
X7343851Y1580692D01*
X7340193Y1569110D01*
X7313422Y1493570D01*
X7285278Y1412138D01*
X7279335Y1395526D01*
X7274509Y1382826D01*
X7270496Y1373530D01*
X7267041Y1367129D01*
X7265517Y1364894D01*
X7263993Y1363268D01*
X7262520Y1362100D01*
X7260996Y1361440D01*
X7259472Y1361135D01*
X7256221Y1361490D01*
X7240778Y1366774D01*
X7235698Y1368755D01*
X7233970Y1369974D01*
X7232802Y1371549D01*
X7232142Y1373632D01*
X7232040Y1376324D01*
X7009177Y1376324D01*
X6985203Y1317752D01*
X6956602Y1249070D01*
X6929170Y1184351D01*
X6913734Y1148588D01*
X7151573Y1148588D01*
X7152081Y1153414D01*
X7153351Y1158849D01*
X7206183Y1308608D01*
X7217206Y1338732D01*
X7220254Y1346098D01*
X7222236Y1349908D01*
X7223658Y1351330D01*
X7224979Y1351534D01*
X7231125Y1350010D01*
X7248753Y1344472D01*
X7253173Y1342898D01*
X7254697Y1341831D01*
X7255713Y1340459D01*
X7256221Y1338580D01*
X7256221Y1336090D01*
X7255713Y1332788D01*
X7254697Y1328572D01*
X7250938Y1316888D01*
X7191248Y1148435D01*
X7186828Y1137158D01*
X7184085Y1131417D01*
X7183018Y1130046D01*
X7182103Y1129334D01*
X7180122Y1129080D01*
X7173874Y1129284D01*
X7168438Y1129995D01*
X7163714Y1131112D01*
X7159853Y1132738D01*
X7156703Y1134872D01*
X7154316Y1137513D01*
X7152640Y1140663D01*
X7151776Y1144371D01*
X7151573Y1148588D01*
X6913734Y1148588D01*
X6896912Y1110081D01*
X6879539Y1071067D01*
X6863033Y1035151D01*
X7114184Y1035151D01*
X7114235Y1038047D01*
X7114794Y1042263D01*
X7117334Y1053947D01*
X7121194Y1068324D01*
X7125868Y1083665D01*
X7130846Y1098245D01*
X7135571Y1110234D01*
X7137653Y1114704D01*
X7139431Y1117854D01*
X7140905Y1119530D01*
X7146493Y1118920D01*
X7156653Y1115923D01*
X7167168Y1111961D01*
X7173518Y1108506D01*
X7174788Y1107440D01*
X7175093Y1106779D01*
X7175195Y1105662D01*
X7174280Y1101394D01*
X7171486Y1092708D01*
X7158228Y1054963D01*
X7152741Y1040130D01*
X7150353Y1034745D01*
X7148017Y1030579D01*
X7145528Y1027531D01*
X7142886Y1025652D01*
X7139838Y1024788D01*
X7136333Y1024890D01*
X7132218Y1025956D01*
X7127341Y1027785D01*
X7114794Y1033830D01*
X7114184Y1035151D01*
X6863033Y1035151D01*
X6830618Y964742D01*
X6816186Y934719D01*
X7074865Y934719D01*
X7075576Y938326D01*
X7093762Y991057D01*
X7098233Y1003147D01*
X7101382Y1010767D01*
X7103516Y1014780D01*
X7104278Y1015644D01*
X7104888Y1015898D01*
X7110475Y1014425D01*
X7121753Y1010818D01*
X7127748Y1008634D01*
X7132828Y1006500D01*
X7136384Y1004620D01*
X7137958Y1003249D01*
X7137704Y1001217D01*
X7134707Y990447D01*
X7129322Y973836D01*
X7122871Y955090D01*
X7116622Y937869D01*
X7111796Y925830D01*
X7110323Y922883D01*
X7107580Y918667D01*
X7080148Y928522D01*
X7076998Y930198D01*
X7075271Y932129D01*
X7074865Y934719D01*
X6816186Y934719D01*
X6806996Y916025D01*
X6789064Y880770D01*
X6771233Y847242D01*
X6760514Y827836D01*
X7037831Y827836D01*
X7038086Y829868D01*
X7041184Y840587D01*
X7046620Y857199D01*
X7053122Y875944D01*
X7059371Y893165D01*
X7064146Y905154D01*
X7065568Y907948D01*
X7068362Y912215D01*
X7088276Y905459D01*
X7097369Y901903D01*
X7099655Y900836D01*
X7100925Y899210D01*
X7100925Y896112D01*
X7099503Y890371D01*
X7087565Y855268D01*
X7076694Y825500D01*
X7074001Y819099D01*
X7072528Y816305D01*
X7070496Y816051D01*
X7066381Y816711D01*
X7060946Y818134D01*
X7054850Y820013D01*
X7043470Y824331D01*
X7039609Y826312D01*
X7037831Y827836D01*
X6760514Y827836D01*
X6750964Y810971D01*
X6739737Y791921D01*
X6728968Y774242D01*
X6721297Y762203D01*
X6711492Y747674D01*
X6701993Y734618D01*
X6692950Y723138D01*
X6684264Y713232D01*
X6676034Y704900D01*
X6668262Y698144D01*
X6664553Y695350D01*
X6660946Y692962D01*
X6657492Y691032D01*
X6654139Y689457D01*
X6650888Y688289D01*
X6647840Y687578D01*
X6644894Y687222D01*
X6642049Y687324D01*
X6639407Y687832D01*
X6636867Y688746D01*
X6634480Y690118D01*
X6632244Y691896D01*
X6630162Y694080D01*
X6628231Y696671D01*
X6626504Y699719D01*
X6624828Y703326D01*
X6623507Y706983D01*
X6622643Y710793D01*
X6622135Y714857D01*
X6622084Y719328D01*
X6622491Y724357D01*
X6623303Y729996D01*
X6624624Y736396D01*
X6628739Y751941D01*
X6643116Y797966D01*
X6771792Y1204214D01*
X6811416Y1328115D01*
X6818934Y1353413D01*
X6825742Y1377746D01*
X6831838Y1401368D01*
X6837222Y1424432D01*
X6841947Y1447038D01*
X6846062Y1469440D01*
X6849618Y1491792D01*
X6852615Y1514195D01*
X6858355Y1570024D01*
X6871309Y1578559D01*
X6880758Y1585214D01*
X6889546Y1591970D01*
X6897573Y1598676D01*
X6904939Y1605483D01*
X6911594Y1612239D01*
X6917588Y1619046D01*
X6922922Y1625854D01*
X6927545Y1632610D01*
X6931558Y1639366D01*
X6934860Y1646123D01*
X6937502Y1652828D01*
X6939534Y1659534D01*
X6940905Y1666138D01*
X6941616Y1672742D01*
X6941718Y1679244D01*
X6941159Y1685696D01*
X6939991Y1692097D01*
X6938213Y1698396D01*
X6935825Y1704593D01*
X6932777Y1710740D01*
X6929170Y1716735D01*
X6924954Y1722628D01*
X6920179Y1728419D01*
X6914794Y1734108D01*
X6908800Y1739595D01*
X6902246Y1745030D01*
X6895134Y1750263D01*
X6887413Y1755343D01*
X6879183Y1760270D01*
X6870344Y1765046D01*
X6860997Y1769618D01*
X6851091Y1773986D01*
X6840626Y1778203D01*
X6829653Y1782216D01*
X6818122Y1786026D01*
X6806082Y1789633D01*
X6793484Y1792986D01*
X6780428Y1796135D01*
X6766814Y1799082D01*
X6752742Y1801723D01*
X6738162Y1804162D01*
X6723024Y1806346D01*
X6707479Y1808225D01*
X6692493Y1809750D01*
X6678523Y1810867D01*
X6664655Y1811680D01*
X6650939Y1812188D01*
X6623862Y1812340D01*
X6610502Y1811985D01*
X6597345Y1811324D01*
X6584340Y1810410D01*
X6571538Y1809242D01*
X6558838Y1807819D01*
X6534150Y1804263D01*
X6510223Y1799742D01*
X6498590Y1797151D01*
X6481622Y1792833D01*
X6459829Y1786382D01*
X6449364Y1782876D01*
X6439103Y1779168D01*
X6419494Y1771243D01*
X6410147Y1767027D01*
X6392367Y1758086D01*
X6383934Y1753412D01*
X6375857Y1748637D01*
X6360718Y1738579D01*
X6353708Y1733397D01*
X6347053Y1728114D01*
X6340754Y1722678D01*
X6334861Y1717192D01*
X6329324Y1711604D01*
X6324244Y1705914D01*
X6319520Y1700123D01*
X6315252Y1694332D01*
X6311392Y1688388D01*
X6307988Y1682445D01*
X6305042Y1676450D01*
X6302552Y1670405D01*
X6300470Y1664309D01*
X6298946Y1658162D01*
X6297828Y1652016D01*
X6297218Y1645818D01*
X6297117Y1639671D01*
X6297523Y1633474D01*
X6298438Y1627276D01*
X6299911Y1621078D01*
X6301841Y1614932D01*
X6304381Y1608785D01*
X6307429Y1602638D01*
X6311087Y1596593D01*
X6315252Y1590548D01*
X6320028Y1584553D01*
X6325412Y1578610D01*
X6331356Y1572717D01*
X6337909Y1566926D01*
X6345072Y1561185D01*
X6352844Y1555546D01*
X6361277Y1549958D01*
X6379006Y1538732D01*
X6387592Y1516684D01*
X6393434Y1500225D01*
X6398717Y1483461D01*
X6402273Y1470660D01*
X6407353Y1448816D01*
X6409994Y1435404D01*
X6413550Y1412392D01*
X6414719Y1402943D01*
X6416903Y1378762D01*
X6417970Y1358696D01*
X6418376Y1337970D01*
X6418021Y1311097D01*
X6416649Y1282954D01*
X6414770Y1259586D01*
X6412331Y1235303D01*
X6408318Y1203655D01*
X6404356Y1177239D01*
X6399733Y1149858D01*
X6394450Y1121359D01*
X6388557Y1091793D01*
X6380175Y1053134D01*
X6372758Y1020876D01*
X6364630Y987399D01*
X6355842Y952550D01*
X6335369Y874471D01*
X6325920Y837082D01*
X6317996Y803859D01*
X6311493Y774344D01*
X6307531Y754430D01*
X6303467Y730402D01*
X6300622Y708964D01*
X6299657Y699058D01*
X6298641Y680669D01*
X6298590Y672084D01*
X6298793Y663803D01*
X6299250Y655828D01*
X6299962Y648004D01*
X6301618Y636168D01*
X6969252Y636168D01*
X6969810Y640384D01*
X7013194Y763574D01*
X7023404Y791972D01*
X7026909Y799998D01*
X7028383Y802792D01*
X7029805Y804773D01*
X7031177Y806145D01*
X7032498Y806958D01*
X7033920Y807262D01*
X7035444Y807161D01*
X7038898Y805942D01*
X7043318Y804062D01*
X7056424Y799592D01*
X7058863Y798576D01*
X7060742Y797356D01*
X7062063Y795934D01*
X7062825Y794054D01*
X7063079Y791667D01*
X7062825Y788568D01*
X7062012Y784707D01*
X7058761Y774141D01*
X7032142Y699160D01*
X7019899Y663905D01*
X7013194Y645414D01*
X7005269Y625195D01*
X7004151Y623062D01*
X7002068Y622757D01*
X6998004Y623468D01*
X6992569Y624840D01*
X6986473Y626770D01*
X6975144Y631139D01*
X6971284Y633171D01*
X6969506Y634746D01*
X6969252Y636168D01*
X6301618Y636168D01*
X6304432Y621741D01*
X6306972Y611581D01*
X6309868Y601573D01*
X6313170Y591820D01*
X6316776Y582269D01*
X6320739Y572922D01*
X6325057Y563778D01*
X6329730Y554888D01*
X6334709Y546150D01*
X6342133Y534416D01*
X6925259Y534416D01*
X6928561Y541223D01*
X6935470Y553974D01*
X6942988Y569468D01*
X6949694Y584555D01*
X6952335Y591058D01*
X6958279Y607974D01*
X6960108Y611225D01*
X6962241Y613054D01*
X6965035Y613562D01*
X6968794Y612902D01*
X6973925Y611276D01*
X6986371Y606602D01*
X6990537Y604723D01*
X6993331Y602792D01*
X6994855Y600456D01*
X6995210Y597509D01*
X6994550Y593496D01*
X6992924Y588213D01*
X6987336Y573125D01*
X6984085Y565759D01*
X6980681Y559257D01*
X6977075Y553415D01*
X6973265Y548335D01*
X6969201Y543915D01*
X6964832Y540156D01*
X6960057Y536956D01*
X6954926Y534314D01*
X6949338Y532130D01*
X6943293Y530453D01*
X6936740Y529234D01*
X6929170Y528726D01*
X6925411Y530352D01*
X6925259Y534416D01*
X6342133Y534416D01*
X6351422Y521360D01*
X6357620Y513486D01*
X6364071Y505917D01*
X6370777Y498551D01*
X6377736Y491388D01*
X6388658Y481076D01*
X6396278Y474522D01*
X6404102Y468172D01*
X6420358Y456234D01*
X6437477Y445262D01*
X6446316Y440131D01*
X6455308Y435254D01*
X6464503Y430631D01*
X6473799Y426262D01*
X6483299Y422148D01*
X6492900Y418287D01*
X6502654Y414680D01*
X6512559Y411327D01*
X6527596Y406806D01*
X6537706Y404114D01*
X6553098Y400608D01*
X6563461Y398576D01*
X6573926Y396798D01*
X6584391Y395325D01*
X6605524Y393242D01*
X6616192Y392582D01*
X6626809Y392226D01*
X6637477Y392125D01*
X6648145Y392328D01*
X6658864Y392836D01*
X6669481Y393598D01*
X6680149Y394665D01*
X6690766Y396036D01*
X6701383Y397713D01*
X6711899Y399643D01*
X6732828Y404469D01*
X6743141Y407314D01*
X6753453Y410514D01*
X6763613Y413969D01*
X6773722Y417728D01*
X6783679Y421843D01*
X6793534Y426212D01*
X6803288Y430936D01*
X6812889Y435965D01*
X6822338Y441350D01*
X6831685Y446989D01*
X6845350Y456133D01*
X6854240Y462584D01*
X6867245Y472948D01*
X6875678Y480263D01*
X6883908Y487883D01*
X6907428Y511251D01*
X6928967Y511352D01*
X6940803Y511962D01*
X6946290Y512673D01*
X6951573Y513638D01*
X6956552Y514959D01*
X6961327Y516534D01*
X6965848Y518414D01*
X6970115Y520649D01*
X6974230Y523138D01*
X6978142Y526034D01*
X6981850Y529234D01*
X6985355Y532790D01*
X6988759Y536702D01*
X6991959Y541020D01*
X6995007Y545693D01*
X6997953Y550722D01*
X7000748Y556158D01*
X7006031Y568299D01*
X7011009Y581812D01*
X7013092Y586841D01*
X7015022Y590296D01*
X7017207Y592378D01*
X7019848Y593242D01*
X7023303Y593090D01*
X7027875Y592074D01*
X7033869Y590397D01*
X7039000Y589280D01*
X7043267Y589076D01*
X7046671Y589584D01*
X7049160Y590804D01*
X7050786Y592480D01*
X7051548Y594614D01*
X7051344Y597001D01*
X7050176Y599592D01*
X7048093Y602234D01*
X7045045Y604774D01*
X7041032Y607161D01*
X7036003Y609244D01*
X7029958Y611276D01*
X7027824Y612343D01*
X7026402Y613765D01*
X7025640Y615746D01*
X7025538Y618540D01*
X7026097Y622300D01*
X7027418Y627380D01*
X7032294Y642162D01*
X7064552Y733602D01*
X7074712Y761542D01*
X7078421Y771093D01*
X7081469Y778154D01*
X7083958Y783082D01*
X7086041Y786130D01*
X7086955Y787095D01*
X7088733Y788009D01*
X7089648Y788111D01*
X7091476Y787654D01*
X7098792Y784148D01*
X7100519Y782421D01*
X7101382Y780034D01*
X7101941Y771194D01*
X7102906Y766521D01*
X7104430Y762406D01*
X7106462Y759002D01*
X7108952Y756158D01*
X7111796Y753973D01*
X7114946Y752348D01*
X7118299Y751332D01*
X7121906Y750925D01*
X7125563Y751078D01*
X7129272Y751789D01*
X7132980Y753110D01*
X7136587Y754989D01*
X7140041Y757377D01*
X7143292Y760323D01*
X7146239Y763828D01*
X7148830Y767842D01*
X7151065Y772363D01*
X7152741Y777392D01*
X7153960Y782929D01*
X7154519Y788974D01*
X7154367Y794613D01*
X7153554Y799744D01*
X7152131Y804367D01*
X7150201Y808482D01*
X7147763Y811936D01*
X7144918Y814832D01*
X7141718Y817016D01*
X7138212Y818540D01*
X7134504Y819353D01*
X7130643Y819353D01*
X7126681Y818591D01*
X7122668Y816965D01*
X7118705Y814527D01*
X7114844Y811123D01*
X7109155Y804519D01*
X7107123Y803503D01*
X7104329Y803656D01*
X7096607Y805789D01*
X7094321Y806704D01*
X7093000Y808075D01*
X7092645Y810412D01*
X7093305Y814171D01*
X7097826Y827887D01*
X7114946Y875436D01*
X7119721Y887526D01*
X7121245Y890727D01*
X7122312Y892454D01*
X7123125Y892962D01*
X7129475Y891844D01*
X7134352Y888695D01*
X7137501Y883767D01*
X7138670Y877366D01*
X7139178Y871931D01*
X7140498Y867308D01*
X7142632Y863447D01*
X7145375Y860348D01*
X7148677Y858012D01*
X7152436Y856437D01*
X7156500Y855624D01*
X7160717Y855522D01*
X7165086Y856183D01*
X7169454Y857554D01*
X7173671Y859637D01*
X7177684Y862431D01*
X7181342Y865936D01*
X7184593Y870153D01*
X7187234Y875080D01*
X7189266Y880618D01*
X7190689Y887018D01*
X7191451Y893064D01*
X7191451Y898652D01*
X7190841Y903833D01*
X7189673Y908456D01*
X7187946Y912571D01*
X7185710Y916076D01*
X7183018Y918921D01*
X7179970Y921156D01*
X7176516Y922629D01*
X7172807Y923391D01*
X7168845Y923290D01*
X7164679Y922375D01*
X7160310Y920597D01*
X7155891Y917905D01*
X7146391Y910386D01*
X7141768Y908202D01*
X7137603Y907542D01*
X7134199Y908303D01*
X7131710Y910386D01*
X7130338Y913739D01*
X7130288Y918159D01*
X7131710Y923645D01*
X7153859Y984758D01*
X7156754Y992022D01*
X7158228Y995121D01*
X7161733Y996442D01*
X7166406Y995375D01*
X7170623Y992682D01*
X7172909Y988923D01*
X7174636Y981303D01*
X7176566Y974953D01*
X7178649Y969822D01*
X7180986Y965809D01*
X7183678Y962863D01*
X7186726Y960831D01*
X7190282Y959662D01*
X7194296Y959307D01*
X7199884Y959916D01*
X7205167Y961644D01*
X7210044Y964387D01*
X7214514Y967994D01*
X7218476Y972362D01*
X7221880Y977290D01*
X7224572Y982776D01*
X7226553Y988618D01*
X7227722Y994664D01*
X7227976Y1000810D01*
X7227316Y1006957D01*
X7225588Y1013002D01*
X7222693Y1018794D01*
X7219086Y1023264D01*
X7214819Y1026312D01*
X7210044Y1027887D01*
X7204913Y1028090D01*
X7199528Y1026769D01*
X7194042Y1023975D01*
X7181646Y1014679D01*
X7175398Y1012596D01*
X7170318Y1013409D01*
X7167118Y1017219D01*
X7167168Y1018641D01*
X7168896Y1025652D01*
X7172350Y1037183D01*
X7177176Y1051915D01*
X7182916Y1068527D01*
X7192213Y1093978D01*
X7194194Y1097534D01*
X7196785Y1099718D01*
X7199630Y1100632D01*
X7202627Y1100277D01*
X7205421Y1098753D01*
X7207808Y1096213D01*
X7209586Y1092606D01*
X7210501Y1088136D01*
X7211161Y1083005D01*
X7212228Y1078534D01*
X7213701Y1074674D01*
X7215581Y1071372D01*
X7217714Y1068679D01*
X7220153Y1066546D01*
X7222845Y1064920D01*
X7225741Y1063853D01*
X7228738Y1063294D01*
X7231837Y1063294D01*
X7235037Y1063701D01*
X7238238Y1064615D01*
X7241438Y1065987D01*
X7244588Y1067816D01*
X7247636Y1070051D01*
X7250531Y1072743D01*
X7253224Y1075791D01*
X7255713Y1079195D01*
X7257948Y1083005D01*
X7259878Y1087170D01*
X7261402Y1091692D01*
X7262571Y1096518D01*
X7263282Y1101648D01*
X7263536Y1107084D01*
X7263079Y1112875D01*
X7261809Y1118057D01*
X7259726Y1122527D01*
X7257034Y1126236D01*
X7253782Y1129182D01*
X7250023Y1131265D01*
X7245959Y1132484D01*
X7241590Y1132789D01*
X7237120Y1132179D01*
X7232548Y1130554D01*
X7227976Y1127861D01*
X7218984Y1120140D01*
X7214819Y1117955D01*
X7210653Y1117498D01*
X7206183Y1118565D01*
X7205116Y1119022D01*
X7204303Y1119632D01*
X7203846Y1120698D01*
X7203846Y1122476D01*
X7204303Y1125270D01*
X7205370Y1129385D01*
X7209586Y1142542D01*
X7255764Y1273454D01*
X7263688Y1297533D01*
X7269683Y1314043D01*
X7272223Y1319885D01*
X7274559Y1324254D01*
X7276744Y1327353D01*
X7278979Y1329385D01*
X7281265Y1330452D01*
X7283703Y1330706D01*
X7286447Y1330299D01*
X7295997Y1327810D01*
X7301484Y1327099D01*
X7306056Y1327200D01*
X7309662Y1328064D01*
X7312202Y1329486D01*
X7313675Y1331417D01*
X7314031Y1333754D01*
X7313168Y1336294D01*
X7311085Y1339037D01*
X7307732Y1341780D01*
X7303058Y1344422D01*
X7289495Y1349908D01*
X7286142Y1353210D01*
X7286142Y1358544D01*
X7290816Y1372717D01*
X7320635Y1458671D01*
X7325563Y1471320D01*
X7331659Y1487932D01*
X7348677Y1536395D01*
X7359853Y1567383D01*
X7363510Y1576324D01*
X7366406Y1581708D01*
X7367676Y1583334D01*
X7368895Y1584350D01*
X7370114Y1584858D01*
X7371334Y1584909D01*
X7372705Y1584655D01*
X7379766Y1581708D01*
X7388301Y1579321D01*
X7394600Y1578864D01*
X7398867Y1580388D01*
X7401153Y1583842D01*
X7401153Y1587804D01*
X7399426Y1592275D01*
X7396784Y1595882D01*
X7393838Y1597406D01*
X7385558Y1597253D01*
X7382357Y1597507D01*
X7379868Y1598320D01*
X7378903Y1599031D01*
X7378141Y1599996D01*
X7377582Y1601216D01*
X7377074Y1604568D01*
X7377430Y1609445D01*
X7378750Y1616100D01*
X7381087Y1624736D01*
X7384440Y1635658D01*
X7394498Y1665478D01*
X7438644Y1790496D01*
X7440320Y1794764D01*
X7442098Y1797659D01*
X7444181Y1799285D01*
X7446924Y1799793D01*
X7450632Y1799386D01*
X7455611Y1798116D01*
X7462164Y1796135D01*
X7468565Y1794865D01*
X7473238Y1795424D01*
X7476337Y1797812D01*
X7477861Y1802079D01*
X7477658Y1806244D01*
X7475423Y1809597D01*
X7470800Y1812493D01*
X7458760Y1816811D01*
X7455458Y1818487D01*
X7453375Y1820621D01*
X7452512Y1823669D01*
X7452868Y1827987D01*
X7454392Y1834083D01*
X7460792Y1853133D01*
X7481163Y1910384D01*
X7485227Y1920544D01*
X7488478Y1927199D01*
X7489901Y1929434D01*
X7491272Y1931009D01*
X7492593Y1932025D01*
X7493914Y1932533D01*
X7495336Y1932584D01*
X7498486Y1931771D01*
X7504684Y1929231D01*
X7510119Y1927555D01*
X7514793Y1926894D01*
X7518704Y1927047D01*
X7521803Y1927910D01*
X7524038Y1929384D01*
X7525308Y1931365D01*
X7525664Y1933651D01*
X7525054Y1936242D01*
X7523327Y1938985D01*
X7520533Y1941728D01*
X7516622Y1944370D01*
X7506563Y1948891D01*
X7502398Y1950974D01*
X7499502Y1952752D01*
X7498181Y1953971D01*
X7497978Y1954885D01*
X7498588Y1958543D01*
X7501585Y1967890D01*
X7530592Y2049881D01*
X7534249Y2053386D01*
X7540853Y2053183D01*
X7552690Y2050034D01*
X7559548Y2048764D01*
X7564272Y2049475D01*
X7567066Y2052269D01*
X7567980Y2057196D01*
X7566355Y2061210D01*
X7562392Y2065223D01*
X7557211Y2068322D01*
X7550505Y2069896D01*
X7548524Y2070658D01*
X7546441Y2071776D01*
X7539990Y2076805D01*
X7550556Y2107031D01*
X7552740Y2114600D01*
X7554518Y2121814D01*
X7555788Y2128774D01*
X7556652Y2135378D01*
X7557008Y2141728D01*
X7556906Y2147824D01*
X7556347Y2153666D01*
X7555331Y2159355D01*
X7553807Y2164842D01*
X7551826Y2170176D01*
X7549337Y2175408D01*
X7546390Y2180539D01*
X7542936Y2185568D01*
X7538974Y2190597D01*
X7524343Y2206345D01*
X7579055Y2362962D01*
X7610500Y2450795D01*
X7664094Y2602077D01*
X7672781Y2627680D01*
X7677505Y2640787D01*
X7682280Y2652979D01*
X7687106Y2664460D01*
X7692136Y2675178D01*
X7697317Y2685338D01*
X7702854Y2695041D01*
X7708696Y2704338D01*
X7714996Y2713329D01*
X7721803Y2722118D01*
X7729118Y2730804D01*
X7737094Y2739542D01*
X7745780Y2748330D01*
X7755229Y2757322D01*
X7765491Y2766618D01*
X7776667Y2776321D01*
X7802422Y2797505D01*
X7815580Y2807716D01*
X7827467Y2816199D01*
X7833004Y2819857D01*
X7843520Y2825851D01*
X7848549Y2828290D01*
X7853476Y2830372D01*
X7858302Y2832049D01*
X7863128Y2833370D01*
X7867954Y2834335D01*
X7872780Y2834995D01*
X7877708Y2835249D01*
X7882686Y2835249D01*
X7887868Y2834894D01*
X7893202Y2834233D01*
X7904530Y2831998D01*
X7917027Y2828645D01*
X7946085Y2819349D01*
X7960106Y2815539D01*
X7973263Y2812694D01*
X7985709Y2810814D01*
X7997596Y2809951D01*
X8003438Y2809849D01*
X8009178Y2810002D01*
X8020558Y2811018D01*
X8031988Y2813050D01*
X8043621Y2815945D01*
X8061350Y2821584D01*
X8066735Y2822651D01*
X8072018Y2822956D01*
X8077504Y2822498D01*
X8083397Y2821178D01*
X8089950Y2818993D01*
X8097520Y2815894D01*
X8128812Y2801315D01*
X8140801Y2796184D01*
X8151368Y2792374D01*
X8156448Y2790799D01*
X8166658Y2788361D01*
X8177733Y2786583D01*
X8190534Y2785160D01*
X8358581Y2771140D01*
X8375903Y2769514D01*
X8386622Y2768295D01*
X8391296Y2768193D01*
X8395004Y2768600D01*
X8397646Y2769412D01*
X8399322Y2770682D01*
X8400084Y2772410D01*
X8399830Y2774543D01*
X8398611Y2777083D01*
X8396478Y2779979D01*
X8393430Y2783230D01*
X8389467Y2786837D01*
X8384590Y2790748D01*
X8372195Y2799435D01*
X8356295Y2809138D01*
X8339226Y2819146D01*
X8327085Y2826766D01*
X8318753Y2832862D01*
X8315655Y2835656D01*
X8313064Y2838399D01*
X8310930Y2841193D01*
X8309051Y2844241D01*
X8300770Y2860192D01*
X8295386Y2866491D01*
X8288578Y2870962D01*
X8279536Y2874213D01*
X8239404Y2885389D01*
X8210296Y2892755D01*
X8198916Y2895193D01*
X8189061Y2896819D01*
X8180273Y2897784D01*
X8172246Y2898140D01*
X8164474Y2897835D01*
X8156549Y2897073D01*
X8096961Y2886862D01*
X8085328Y2884576D01*
X8075726Y2882392D01*
X8064042Y2878937D01*
X8054543Y2876854D01*
X8044281Y2875534D01*
X8033359Y2875026D01*
X8021878Y2875280D01*
X8009788Y2876296D01*
X7997291Y2878023D01*
X7984388Y2880563D01*
X7971129Y2883814D01*
X7957667Y2887776D01*
X7943951Y2892450D01*
X7930134Y2897835D01*
X7918246Y2902864D01*
X7907781Y2906572D01*
X7896758Y2909671D01*
X7885175Y2912211D01*
X7873136Y2914142D01*
X7860588Y2915462D01*
G37*
D10*
X1287779Y4000245D02*
G01*
X1104900Y3519931D01*
X1287779Y4000245D02*
G01*
X1470913Y3519931D01*
X1173479Y3679952D02*
G01*
X1402334Y3679952D01*
X1621789Y3840226D02*
G01*
X1621789Y3519931D01*
X1621789Y3748786D02*
G01*
X1690370Y3817365D01*
X1736089Y3840226D01*
X1804923Y3840226D01*
X1850644Y3817365D01*
X1873504Y3748786D01*
X1873504Y3519931D01*
X2298954Y4000245D02*
G01*
X2298954Y3519931D01*
X2298954Y3771645D02*
G01*
X2253234Y3817365D01*
X2207259Y3840226D01*
X2138679Y3840226D01*
X2092959Y3817365D01*
X2047240Y3771645D01*
X2024379Y3702812D01*
X2024379Y3657092D01*
X2047240Y3588512D01*
X2092959Y3542792D01*
X2138679Y3519931D01*
X2207259Y3519931D01*
X2253234Y3542792D01*
X2298954Y3588512D01*
X2449829Y3840226D02*
G01*
X2449829Y3519931D01*
X2449829Y3702812D02*
G01*
X2472690Y3771645D01*
X2518409Y3817365D01*
X2564129Y3840226D01*
X2632709Y3840226D01*
X2783840Y3702812D02*
G01*
X3058159Y3702812D01*
X3058159Y3748786D01*
X3035300Y3794505D01*
X3012440Y3817365D01*
X2966720Y3840226D01*
X2898140Y3840226D01*
X2852420Y3817365D01*
X2806700Y3771645D01*
X2783840Y3702812D01*
X2783840Y3657092D01*
X2806700Y3588512D01*
X2852420Y3542792D01*
X2898140Y3519931D01*
X2966720Y3519931D01*
X3012440Y3542792D01*
X3058159Y3588512D01*
X3209290Y3840226D02*
G01*
X3300729Y3519931D01*
X3392170Y3840226D02*
G01*
X3300729Y3519931D01*
X3392170Y3840226D02*
G01*
X3483609Y3519931D01*
X3575050Y3840226D02*
G01*
X3483609Y3519931D01*
X4078224Y4000245D02*
G01*
X4078224Y3519931D01*
X4078224Y4000245D02*
G01*
X4261358Y3519931D01*
X4444238Y4000245D02*
G01*
X4261358Y3519931D01*
X4444238Y4000245D02*
G01*
X4444238Y3519931D01*
X4869688Y3771645D02*
G01*
X4823968Y3817365D01*
X4778247Y3840226D01*
X4709668Y3840226D01*
X4663947Y3817365D01*
X4618227Y3771645D01*
X4595368Y3702812D01*
X4595368Y3657092D01*
X4618227Y3588512D01*
X4663947Y3542792D01*
X4709668Y3519931D01*
X4778247Y3519931D01*
X4823968Y3542792D01*
X4869688Y3588512D01*
X5203697Y4000245D02*
G01*
X5020818Y3519931D01*
X5203697Y4000245D02*
G01*
X5386577Y3519931D01*
X5089397Y3679952D02*
G01*
X5317997Y3679952D01*
X5537708Y4000245D02*
G01*
X5537708Y3519931D01*
X5688584Y4000245D02*
G01*
X5688584Y3519931D01*
X5839459Y4000245D02*
G01*
X5862320Y3977386D01*
X5885179Y4000245D01*
X5862320Y4023105D01*
X5839459Y4000245D01*
X5862320Y3840226D02*
G01*
X5862320Y3519931D01*
X6287770Y3771645D02*
G01*
X6264909Y3817365D01*
X6196329Y3840226D01*
X6127750Y3840226D01*
X6059170Y3817365D01*
X6036309Y3771645D01*
X6059170Y3725926D01*
X6104890Y3702812D01*
X6219190Y3679952D01*
X6264909Y3657092D01*
X6287770Y3611371D01*
X6287770Y3588512D01*
X6264909Y3542792D01*
X6196329Y3519931D01*
X6127750Y3519931D01*
X6059170Y3542792D01*
X6036309Y3588512D01*
X6507479Y4000245D02*
G01*
X6507479Y3611371D01*
X6530340Y3542792D01*
X6576059Y3519931D01*
X6621779Y3519931D01*
X6438900Y3840226D02*
G01*
X6598920Y3840226D01*
X6772656Y3702812D02*
G01*
X7047229Y3702812D01*
X7047229Y3748786D01*
X7024370Y3794505D01*
X7001509Y3817365D01*
X6955790Y3840226D01*
X6887209Y3840226D01*
X6841490Y3817365D01*
X6795515Y3771645D01*
X6772656Y3702812D01*
X6772656Y3657092D01*
X6795515Y3588512D01*
X6841490Y3542792D01*
X6887209Y3519931D01*
X6955790Y3519931D01*
X7001509Y3542792D01*
X7047229Y3588512D01*
X7198106Y3840226D02*
G01*
X7198106Y3519931D01*
X7198106Y3702812D02*
G01*
X7220965Y3771645D01*
X7266686Y3817365D01*
X7312659Y3840226D01*
X7381240Y3840226D01*
D11*
X1075944Y419862D02*
G01*
X1075944Y290576D01*
X1075944Y392176D02*
G01*
X1057655Y410463D01*
X1039113Y419862D01*
X1011428Y419862D01*
X992886Y410463D01*
X974344Y392176D01*
X965200Y364489D01*
X965200Y345947D01*
X974344Y318262D01*
X992886Y299720D01*
X1011428Y290576D01*
X1039113Y290576D01*
X1057655Y299720D01*
X1075944Y318262D01*
X1173987Y484378D02*
G01*
X1183131Y475234D01*
X1192529Y484378D01*
X1183131Y493776D01*
X1173987Y484378D01*
X1183131Y419862D02*
G01*
X1183131Y262889D01*
X1173987Y234950D01*
X1155445Y225805D01*
X1136904Y225805D01*
X1253489Y419862D02*
G01*
X1253489Y290576D01*
X1253489Y382778D02*
G01*
X1281176Y410463D01*
X1299463Y419862D01*
X1327150Y419862D01*
X1345692Y410463D01*
X1355089Y382778D01*
X1355089Y290576D01*
X1355089Y382778D02*
G01*
X1382776Y410463D01*
X1401063Y419862D01*
X1428750Y419862D01*
X1447292Y410463D01*
X1456689Y382778D01*
X1456689Y290576D01*
X1628394Y392176D02*
G01*
X1609852Y410463D01*
X1591310Y419862D01*
X1563623Y419862D01*
X1545336Y410463D01*
X1526794Y392176D01*
X1517650Y364489D01*
X1517650Y345947D01*
X1526794Y318262D01*
X1545336Y299720D01*
X1563623Y290576D01*
X1591310Y290576D01*
X1609852Y299720D01*
X1628394Y318262D01*
X1800097Y419862D02*
G01*
X1800097Y290576D01*
X1800097Y392176D02*
G01*
X1781810Y410463D01*
X1763268Y419862D01*
X1735581Y419862D01*
X1717039Y410463D01*
X1698497Y392176D01*
X1689354Y364489D01*
X1689354Y345947D01*
X1698497Y318262D01*
X1717039Y299720D01*
X1735581Y290576D01*
X1763268Y290576D01*
X1781810Y299720D01*
X1800097Y318262D01*
X1861057Y484378D02*
G01*
X1861057Y290576D01*
X1922018Y484378D02*
G01*
X1922018Y290576D01*
X1982977Y484378D02*
G01*
X1992375Y475234D01*
X2001520Y484378D01*
X1992375Y493776D01*
X1982977Y484378D01*
X1992375Y419862D02*
G01*
X1992375Y290576D01*
X2164079Y392176D02*
G01*
X2154936Y410463D01*
X2127250Y419862D01*
X2099309Y419862D01*
X2071624Y410463D01*
X2062479Y392176D01*
X2071624Y373634D01*
X2090165Y364489D01*
X2136393Y355092D01*
X2154936Y345947D01*
X2164079Y327405D01*
X2164079Y318262D01*
X2154936Y299720D01*
X2127250Y290576D01*
X2099309Y290576D01*
X2071624Y299720D01*
X2062479Y318262D01*
X2252725Y484378D02*
G01*
X2252725Y327405D01*
X2261870Y299720D01*
X2280411Y290576D01*
X2298954Y290576D01*
X2225040Y419862D02*
G01*
X2289809Y419862D01*
X2359913Y364489D02*
G01*
X2470658Y364489D01*
X2470658Y382778D01*
X2461513Y401320D01*
X2452370Y410463D01*
X2433827Y419862D01*
X2406141Y419862D01*
X2387600Y410463D01*
X2369058Y392176D01*
X2359913Y364489D01*
X2359913Y345947D01*
X2369058Y318262D01*
X2387600Y299720D01*
X2406141Y290576D01*
X2433827Y290576D01*
X2452370Y299720D01*
X2470658Y318262D01*
X2531618Y419862D02*
G01*
X2531618Y290576D01*
X2531618Y364489D02*
G01*
X2541015Y392176D01*
X2559304Y410463D01*
X2577845Y419862D01*
X2605531Y419862D01*
X2805175Y410463D02*
G01*
X2795777Y429005D01*
X2777490Y438150D01*
X2749550Y438150D01*
X2731261Y429005D01*
X2721863Y419862D01*
X2712720Y392176D01*
X2712720Y364489D01*
X2721863Y345947D01*
X2740406Y336550D01*
X2768091Y336550D01*
X2786634Y345947D01*
X2795777Y364489D01*
X2749550Y438150D02*
G01*
X2731261Y419862D01*
X2721863Y392176D01*
X2721863Y364489D01*
X2731261Y345947D01*
X2740406Y336550D01*
X2805175Y438150D02*
G01*
X2795777Y364489D01*
X2795777Y345947D01*
X2814320Y336550D01*
X2832861Y336550D01*
X2851150Y355092D01*
X2860547Y382778D01*
X2860547Y401320D01*
X2851150Y429005D01*
X2842006Y447547D01*
X2823463Y466089D01*
X2805175Y475234D01*
X2777490Y484378D01*
X2749550Y484378D01*
X2721863Y475234D01*
X2703575Y466089D01*
X2685034Y447547D01*
X2675890Y429005D01*
X2666491Y401320D01*
X2666491Y373634D01*
X2675890Y345947D01*
X2685034Y327405D01*
X2703575Y308863D01*
X2721863Y299720D01*
X2749550Y290576D01*
X2777490Y290576D01*
X2805175Y299720D01*
X2823463Y308863D01*
X2832861Y318262D01*
X2814320Y438150D02*
G01*
X2805175Y364489D01*
X2805175Y345947D01*
X2814320Y336550D01*
X3032252Y419862D02*
G01*
X3032252Y272034D01*
X3023108Y244347D01*
X3013709Y234950D01*
X2995422Y225805D01*
X2967736Y225805D01*
X2949193Y234950D01*
X3032252Y392176D02*
G01*
X3013709Y410463D01*
X2995422Y419862D01*
X2967736Y419862D01*
X2949193Y410463D01*
X2930652Y392176D01*
X2921508Y364489D01*
X2921508Y345947D01*
X2930652Y318262D01*
X2949193Y299720D01*
X2967736Y290576D01*
X2995422Y290576D01*
X3013709Y299720D01*
X3032252Y318262D01*
X3093211Y419862D02*
G01*
X3093211Y290576D01*
X3093211Y382778D02*
G01*
X3120897Y410463D01*
X3139440Y419862D01*
X3167125Y419862D01*
X3185668Y410463D01*
X3194811Y382778D01*
X3194811Y290576D01*
X3194811Y382778D02*
G01*
X3222497Y410463D01*
X3241040Y419862D01*
X3268725Y419862D01*
X3287268Y410463D01*
X3296411Y382778D01*
X3296411Y290576D01*
X3468370Y419862D02*
G01*
X3468370Y290576D01*
X3468370Y392176D02*
G01*
X3449827Y410463D01*
X3431286Y419862D01*
X3403600Y419862D01*
X3385058Y410463D01*
X3366770Y392176D01*
X3357372Y364489D01*
X3357372Y345947D01*
X3366770Y318262D01*
X3385058Y299720D01*
X3403600Y290576D01*
X3431286Y290576D01*
X3449827Y299720D01*
X3468370Y318262D01*
X3529329Y484378D02*
G01*
X3538474Y475234D01*
X3547618Y484378D01*
X3538474Y493776D01*
X3529329Y484378D01*
X3538474Y419862D02*
G01*
X3538474Y290576D01*
X3608577Y484378D02*
G01*
X3608577Y290576D01*
X3678936Y336550D02*
G01*
X3669538Y327405D01*
X3678936Y318262D01*
X3688079Y327405D01*
X3678936Y336550D01*
X3859784Y392176D02*
G01*
X3841495Y410463D01*
X3822954Y419862D01*
X3795268Y419862D01*
X3776725Y410463D01*
X3758184Y392176D01*
X3749040Y364489D01*
X3749040Y345947D01*
X3758184Y318262D01*
X3776725Y299720D01*
X3795268Y290576D01*
X3822954Y290576D01*
X3841495Y299720D01*
X3859784Y318262D01*
X3966972Y419862D02*
G01*
X3948429Y410463D01*
X3930141Y392176D01*
X3920743Y364489D01*
X3920743Y345947D01*
X3930141Y318262D01*
X3948429Y299720D01*
X3966972Y290576D01*
X3994658Y290576D01*
X4013200Y299720D01*
X4031741Y318262D01*
X4040886Y345947D01*
X4040886Y364489D01*
X4031741Y392176D01*
X4013200Y410463D01*
X3994658Y419862D01*
X3966972Y419862D01*
X4101845Y419862D02*
G01*
X4101845Y290576D01*
X4101845Y382778D02*
G01*
X4129531Y410463D01*
X4148074Y419862D01*
X4175759Y419862D01*
X4194302Y410463D01*
X4203445Y382778D01*
X4203445Y290576D01*
X4203445Y382778D02*
G01*
X4231131Y410463D01*
X4249674Y419862D01*
X4277359Y419862D01*
X4295902Y410463D01*
X4305045Y382778D01*
X4305045Y290576D01*
X997965Y34036D02*
G01*
X988568Y24637D01*
X979170Y10668D01*
X969771Y-8128D01*
X965200Y-31750D01*
X965200Y-50545D01*
X969771Y-73913D01*
X979170Y-92710D01*
X988568Y-106679D01*
X997965Y-116078D01*
X1075944Y15239D02*
G01*
X1028954Y-50545D01*
X1099312Y-50545D01*
X1075944Y15239D02*
G01*
X1075944Y-83312D01*
X1135126Y-8128D02*
G01*
X1135126Y-3555D01*
X1139697Y5842D01*
X1144270Y10668D01*
X1153668Y15239D01*
X1172463Y15239D01*
X1181862Y10668D01*
X1186687Y5842D01*
X1191260Y-3555D01*
X1191260Y-12954D01*
X1186687Y-22352D01*
X1177289Y-36321D01*
X1130300Y-83312D01*
X1196086Y-83312D01*
X1283207Y15239D02*
G01*
X1236218Y15239D01*
X1231645Y-26923D01*
X1236218Y-22352D01*
X1250442Y-17526D01*
X1264412Y-17526D01*
X1278636Y-22352D01*
X1288034Y-31750D01*
X1292605Y-45720D01*
X1292605Y-55118D01*
X1288034Y-69087D01*
X1278636Y-78486D01*
X1264412Y-83312D01*
X1250442Y-83312D01*
X1236218Y-78486D01*
X1231645Y-73913D01*
X1227073Y-64515D01*
X1323594Y34036D02*
G01*
X1332992Y24637D01*
X1342389Y10668D01*
X1351787Y-8128D01*
X1356360Y-31750D01*
X1356360Y-50545D01*
X1351787Y-73913D01*
X1342389Y-92710D01*
X1332992Y-106679D01*
X1323594Y-116078D01*
X1468881Y15239D02*
G01*
X1520697Y15239D01*
X1492504Y-22352D01*
X1506473Y-22352D01*
X1515871Y-26923D01*
X1520697Y-31750D01*
X1525270Y-45720D01*
X1525270Y-55118D01*
X1520697Y-69087D01*
X1511300Y-78486D01*
X1497076Y-83312D01*
X1483105Y-83312D01*
X1468881Y-78486D01*
X1464310Y-73913D01*
X1459737Y-64515D01*
X1617218Y-17526D02*
G01*
X1612645Y-31750D01*
X1603247Y-41147D01*
X1589023Y-45720D01*
X1584452Y-45720D01*
X1570228Y-41147D01*
X1560829Y-31750D01*
X1556257Y-17526D01*
X1556257Y-12954D01*
X1560829Y1270D01*
X1570228Y10668D01*
X1584452Y15239D01*
X1589023Y15239D01*
X1603247Y10668D01*
X1612645Y1270D01*
X1617218Y-17526D01*
X1617218Y-41147D01*
X1612645Y-64515D01*
X1603247Y-78486D01*
X1589023Y-83312D01*
X1579626Y-83312D01*
X1565655Y-78486D01*
X1560829Y-69087D01*
X1704594Y15239D02*
G01*
X1657604Y15239D01*
X1652778Y-26923D01*
X1657604Y-22352D01*
X1671573Y-17526D01*
X1685797Y-17526D01*
X1699768Y-22352D01*
X1709165Y-31750D01*
X1713992Y-45720D01*
X1713992Y-55118D01*
X1709165Y-69087D01*
X1699768Y-78486D01*
X1685797Y-83312D01*
X1671573Y-83312D01*
X1657604Y-78486D01*
X1652778Y-73913D01*
X1648205Y-64515D01*
X1817115Y-41147D02*
G01*
X1901444Y-41147D01*
X2009393Y-8128D02*
G01*
X2009393Y-3555D01*
X2013965Y5842D01*
X2018791Y10668D01*
X2028190Y15239D01*
X2046986Y15239D01*
X2056384Y10668D01*
X2060956Y5842D01*
X2065781Y-3555D01*
X2065781Y-12954D01*
X2060956Y-22352D01*
X2051558Y-36321D01*
X2004822Y-83312D01*
X2070354Y-83312D01*
X2162302Y-17526D02*
G01*
X2157729Y-31750D01*
X2148331Y-41147D01*
X2134108Y-45720D01*
X2129536Y-45720D01*
X2115311Y-41147D01*
X2105913Y-31750D01*
X2101341Y-17526D01*
X2101341Y-12954D01*
X2105913Y1270D01*
X2115311Y10668D01*
X2129536Y15239D01*
X2134108Y15239D01*
X2148331Y10668D01*
X2157729Y1270D01*
X2162302Y-17526D01*
X2162302Y-41147D01*
X2157729Y-64515D01*
X2148331Y-78486D01*
X2134108Y-83312D01*
X2124709Y-83312D01*
X2110740Y-78486D01*
X2105913Y-69087D01*
X2202688Y15239D02*
G01*
X2254250Y15239D01*
X2226056Y-22352D01*
X2240279Y-22352D01*
X2249677Y-26923D01*
X2254250Y-31750D01*
X2259075Y-45720D01*
X2259075Y-55118D01*
X2254250Y-69087D01*
X2244852Y-78486D01*
X2230881Y-83312D01*
X2216658Y-83312D01*
X2202688Y-78486D01*
X2197861Y-73913D01*
X2193290Y-64515D01*
X2313431Y15239D02*
G01*
X2299208Y10668D01*
X2294636Y1270D01*
X2294636Y-8128D01*
X2299208Y-17526D01*
X2308606Y-22352D01*
X2327402Y-26923D01*
X2341625Y-31750D01*
X2350770Y-41147D01*
X2355595Y-50545D01*
X2355595Y-64515D01*
X2350770Y-73913D01*
X2346197Y-78486D01*
X2332227Y-83312D01*
X2313431Y-83312D01*
X2299208Y-78486D01*
X2294636Y-73913D01*
X2289809Y-64515D01*
X2289809Y-50545D01*
X2294636Y-41147D01*
X2304034Y-31750D01*
X2318004Y-26923D01*
X2336800Y-22352D01*
X2346197Y-17526D01*
X2350770Y-8128D01*
X2350770Y1270D01*
X2346197Y10668D01*
X2332227Y15239D01*
X2313431Y15239D01*
D12*
X3574288Y1879600D02*
G01*
X3579622Y1869186D01*
X3595115Y1853692D01*
X3486150Y1853692D01*
X3884422Y609092D02*
G01*
X3889756Y598678D01*
X3900170Y588263D01*
X3910329Y583184D01*
X3931158Y583184D01*
X3941572Y588263D01*
X3951986Y598678D01*
X3957320Y609092D01*
X3962400Y624839D01*
X3962400Y650747D01*
X3957320Y666242D01*
X3951986Y676655D01*
X3941572Y687070D01*
X3931158Y692150D01*
X3910329Y692150D01*
X3900170Y687070D01*
X3889756Y676655D01*
X3884422Y666242D01*
X3850131Y604012D02*
G01*
X3839718Y598678D01*
X3824224Y583184D01*
X3824224Y692150D01*
X3823588Y2944748D02*
G01*
X3714622Y2944748D01*
X3714622Y2944748D02*
G01*
X3714622Y2882519D01*
X3823588Y2848229D02*
G01*
X3714622Y2848229D01*
X3823588Y2848229D02*
G01*
X3823588Y2780664D01*
X3771772Y2848229D02*
G01*
X3771772Y2806572D01*
X3714622Y2848229D02*
G01*
X3714622Y2780664D01*
X3823588Y2746375D02*
G01*
X3714622Y2746375D01*
X3823588Y2746375D02*
G01*
X3823588Y2709798D01*
X3818509Y2694304D01*
X3808095Y2683890D01*
X3797681Y2678811D01*
X3781933Y2673477D01*
X3756025Y2673477D01*
X3740531Y2678811D01*
X3730116Y2683890D01*
X3719702Y2694304D01*
X3714622Y2709798D01*
X3714622Y2746375D01*
X3802761Y2639187D02*
G01*
X3808095Y2628772D01*
X3823588Y2613279D01*
X3714622Y2613279D01*
X3590140Y2203343D02*
G01*
X3590140Y2125365D01*
X3595220Y2109871D01*
X3605634Y2099457D01*
X3621382Y2094377D01*
X3631796Y2094377D01*
X3647290Y2099457D01*
X3657704Y2109871D01*
X3662784Y2125365D01*
X3662784Y2203343D01*
X3697074Y2182515D02*
G01*
X3707488Y2187849D01*
X3723236Y2203343D01*
X3723236Y2094377D01*
X4509515Y2336800D02*
G01*
X4431538Y2336800D01*
X4416043Y2331720D01*
X4405629Y2321305D01*
X4400550Y2305557D01*
X4400550Y2295144D01*
X4405629Y2279650D01*
X4416043Y2269236D01*
X4431538Y2264155D01*
X4509515Y2264155D01*
X4483608Y2224531D02*
G01*
X4488688Y2224531D01*
X4499102Y2219452D01*
X4504436Y2214118D01*
X4509515Y2203704D01*
X4509515Y2183129D01*
X4504436Y2172715D01*
X4499102Y2167381D01*
X4488688Y2162302D01*
X4478274Y2162302D01*
X4467859Y2167381D01*
X4452365Y2177795D01*
X4400550Y2229865D01*
X4400550Y2156968D01*
X3570879Y735840D02*
G01*
X3771879Y735840D01*
X3771879Y1321559D02*
G01*
X3570879Y1321559D01*
X3555639Y1306319D02*
G01*
X3555639Y751080D01*
X4303120Y735840D02*
G01*
X4102120Y735840D01*
X4102120Y1321559D02*
G01*
X4303120Y1321559D01*
X4318360Y1306319D02*
G01*
X4318360Y751080D01*
D13*
X3631399Y2901000D02*
G01*
X3591399Y2940999D01*
X3581400Y2950999D01*
X3571374Y2940999D01*
X3531374Y2901000D01*
X3631399Y2901000D02*
G01*
X3531374Y2901000D01*
X3479672Y2876677D02*
G01*
X3479672Y2721737D01*
X3682872Y2721737D01*
X3682872Y2876677D01*
X3477133Y2955417D02*
G01*
X3477133Y3102737D01*
X3517772Y3143377D01*
X3644772Y3143377D01*
X3682872Y3105277D01*
X3682872Y2952877D01*
X3692613Y2043102D02*
G01*
X3706802Y2043102D01*
X3506800Y1975609D02*
G01*
X3506800Y2043102D01*
X3520996Y2043102D01*
X3520996Y1843102D02*
G01*
X3506800Y1843102D01*
X3506800Y1910608D01*
X3706802Y1843102D02*
G01*
X3692613Y1843102D01*
X3706802Y1910608D02*
G01*
X3706802Y1843102D01*
X3706802Y2043102D02*
G01*
X3706802Y1975609D01*
X4364799Y3111797D02*
G01*
X4364799Y1561845D01*
X3864800Y1561845D01*
X4364799Y3111797D02*
G01*
X3864800Y3111799D01*
X3864800Y3111799D02*
G01*
X3864800Y1561845D01*
D12*
G75*
G01*
X3570879Y1321559D02*
G03*
X3555639Y1306319I0J-15240D01*
G75*
G01*
X3555639Y751081D02*
G03*
X3570879Y735841I15240J0D01*
G75*
G01*
X4303121Y1321559D02*
G02*
X4318361Y1306319I0J-15240D01*
G75*
G01*
X4318361Y751081D02*
G02*
X4303121Y735841I-15240J0D01*
D13*
G75*
G01
X3562378Y1816095D02*
G03X3562378Y1816095I-6350J0D01*
M02*
