G04 Layer: BottomSilkscreenLayer*
G04 EasyEDA v6.5.44, 2024-08-09 16:29:29*
G04 6a14bbe4783e4c45b3198a44848b54db,9d7ba2091113474d8fe43b4f46ca5270,10*
G04 Gerber Generator version 0.2*
G04 Scale: 100 percent, Rotated: No, Reflected: No *
G04 Dimensions in millimeters *
G04 leading zeros omitted , absolute positions ,4 integer and 5 decimal *
%FSLAX45Y45*%
%MOMM*%

%ADD10C,0.2030*%

%LPD*%
G36*
X8445804Y2779217D02*
G01*
X8431834Y2779064D01*
X8405926Y2778048D01*
X8394293Y2777236D01*
X8383778Y2776220D01*
X8374583Y2775051D01*
X8355939Y2771444D01*
X8279688Y2758084D01*
X8266734Y2755442D01*
X8256422Y2752750D01*
X8247430Y2749651D01*
X8238439Y2745841D01*
X8227314Y2740761D01*
X8221268Y2738272D01*
X8216087Y2736392D01*
X8212480Y2735326D01*
X8206384Y2733954D01*
X8200034Y2732227D01*
X8187334Y2728010D01*
X8181390Y2725674D01*
X8176006Y2723286D01*
X8171383Y2720949D01*
X8162696Y2715818D01*
X8155889Y2712466D01*
X8148218Y2709062D01*
X8127441Y2701290D01*
X8119364Y2697835D01*
X8114030Y2694635D01*
X8105749Y2687980D01*
X8100263Y2684475D01*
X8093557Y2680563D01*
X8079130Y2672740D01*
X8072272Y2668524D01*
X8066481Y2664510D01*
X8059216Y2658160D01*
X8054644Y2654554D01*
X8039404Y2644698D01*
X8034680Y2641346D01*
X8030768Y2638145D01*
X8025790Y2632964D01*
X8022640Y2630119D01*
X8019135Y2627325D01*
X8009432Y2620619D01*
X8004454Y2616657D01*
X7991957Y2605481D01*
X7974685Y2588869D01*
X7951317Y2565400D01*
X7924139Y2537358D01*
X7919974Y2532532D01*
X7916925Y2528519D01*
X7914284Y2523591D01*
X7911998Y2520289D01*
X7901533Y2507996D01*
X7897317Y2502357D01*
X7893354Y2496362D01*
X7887411Y2485694D01*
X7882585Y2477922D01*
X7881162Y2476144D01*
X7878978Y2473960D01*
X7873542Y2466898D01*
X7867548Y2457602D01*
X7862011Y2447594D01*
X7857134Y2437536D01*
X7854238Y2432354D01*
X7851343Y2427884D01*
X7846669Y2421991D01*
X7844078Y2417978D01*
X7841234Y2413050D01*
X7835646Y2401824D01*
X7833207Y2396286D01*
X7831277Y2391257D01*
X7830007Y2387092D01*
X7828991Y2384501D01*
X7827213Y2380894D01*
X7819644Y2368753D01*
X7817256Y2364486D01*
X7812938Y2354935D01*
X7809128Y2343759D01*
X7803997Y2324455D01*
X7798308Y2307437D01*
X7792466Y2292096D01*
X7787944Y2279040D01*
X7784084Y2265832D01*
X7780832Y2252370D01*
X7778140Y2238298D01*
X7775905Y2223363D01*
X7774178Y2209495D01*
X7766659Y2159304D01*
X7765186Y2146858D01*
X7763154Y2121966D01*
X7762290Y2097176D01*
X7762290Y2084832D01*
X7762595Y2072436D01*
X7763154Y2060092D01*
X7764018Y2047748D01*
X7766608Y2023059D01*
X7774253Y1973325D01*
X8184083Y1973325D01*
X8184337Y1980387D01*
X8184997Y1987448D01*
X8186724Y1999132D01*
X8187436Y2008987D01*
X8188045Y2024329D01*
X8188909Y2077008D01*
X8190992Y2394813D01*
X8190941Y2444038D01*
X8190382Y2473756D01*
X8189010Y2516073D01*
X8189163Y2528214D01*
X8189823Y2538018D01*
X8192617Y2557475D01*
X8198408Y2562809D01*
X8201456Y2565146D01*
X8205470Y2567482D01*
X8209940Y2569514D01*
X8214309Y2571089D01*
X8227059Y2574493D01*
X8230108Y2574594D01*
X8234070Y2574036D01*
X8238845Y2572918D01*
X8244128Y2571242D01*
X8255508Y2566670D01*
X8261096Y2563876D01*
X8270849Y2558237D01*
X8279536Y2553817D01*
X8289137Y2550058D01*
X8301075Y2546400D01*
X8314690Y2542540D01*
X8321141Y2540304D01*
X8326881Y2537968D01*
X8331250Y2535834D01*
X8341868Y2529992D01*
X8350808Y2525928D01*
X8360359Y2522778D01*
X8382660Y2517038D01*
X8391652Y2513990D01*
X8400186Y2510434D01*
X8417458Y2501849D01*
X8426602Y2498039D01*
X8436356Y2494635D01*
X8460181Y2487930D01*
X8469223Y2485034D01*
X8474710Y2482646D01*
X8479180Y2478887D01*
X8482482Y2476906D01*
X8492236Y2472334D01*
X8503767Y2467914D01*
X8509304Y2466187D01*
X8520582Y2463444D01*
X8530996Y2460498D01*
X8535466Y2458821D01*
X8539632Y2456942D01*
X8548014Y2452217D01*
X8556955Y2446426D01*
X8566099Y2441549D01*
X8570976Y2439466D01*
X8576056Y2437587D01*
X8587282Y2434386D01*
X8599474Y2431440D01*
X8606637Y2429205D01*
X8622385Y2423464D01*
X8636050Y2417521D01*
X8640724Y2415032D01*
X8643162Y2413203D01*
X8646210Y2408478D01*
X8650122Y2401519D01*
X8654643Y2392883D01*
X8654338Y2336901D01*
X8653526Y2307742D01*
X8651087Y2265019D01*
X8649055Y2217318D01*
X8647379Y2192680D01*
X8637981Y2091893D01*
X8634882Y2051964D01*
X8626754Y1932228D01*
X8624265Y1904644D01*
X8621877Y1883918D01*
X8621471Y1877923D01*
X8622284Y1872792D01*
X8624316Y1868525D01*
X8627719Y1864969D01*
X8632647Y1862023D01*
X8639149Y1859686D01*
X8647379Y1857806D01*
X8665718Y1855063D01*
X8674506Y1853336D01*
X8682786Y1851304D01*
X8737295Y1833168D01*
X8745982Y1829612D01*
X8752840Y1826006D01*
X8758783Y1821942D01*
X8777528Y1808327D01*
X8782151Y1804466D01*
X8788196Y1798472D01*
X8794902Y1791055D01*
X8801658Y1782927D01*
X8817051Y1763471D01*
X8819184Y1750669D01*
X8820048Y1744014D01*
X8820505Y1736902D01*
X8820607Y1729536D01*
X8820302Y1722120D01*
X8819692Y1714957D01*
X8818727Y1708251D01*
X8817406Y1702206D01*
X8815832Y1697126D01*
X8813749Y1692554D01*
X8810853Y1687525D01*
X8807348Y1682191D01*
X8803284Y1676704D01*
X8798814Y1671167D01*
X8789009Y1660347D01*
X8783878Y1655368D01*
X8778748Y1650796D01*
X8773718Y1646783D01*
X8768994Y1643430D01*
X8764524Y1640890D01*
X8759545Y1638757D01*
X8753246Y1636674D01*
X8745982Y1634693D01*
X8738158Y1632864D01*
X8730132Y1631289D01*
X8722309Y1630121D01*
X8715044Y1629359D01*
X8708796Y1629054D01*
X8702141Y1629257D01*
X8687562Y1630629D01*
X8672372Y1633118D01*
X8657691Y1636369D01*
X8644788Y1640179D01*
X8639352Y1642262D01*
X8634831Y1644294D01*
X8616137Y1655724D01*
X8605621Y1661566D01*
X8600084Y1665274D01*
X8594902Y1669237D01*
X8587232Y1676247D01*
X8580932Y1681581D01*
X8576919Y1684426D01*
X8574074Y1687169D01*
X8567470Y1694789D01*
X8560054Y1703933D01*
X8550656Y1715058D01*
X8548166Y1718767D01*
X8545931Y1722932D01*
X8543899Y1727606D01*
X8542070Y1732686D01*
X8540445Y1738223D01*
X8539022Y1744268D01*
X8535619Y1763725D01*
X8541258Y1798421D01*
X8542934Y1810969D01*
X8544204Y1822856D01*
X8544915Y1832610D01*
X8545118Y1841246D01*
X8545931Y1853793D01*
X8547455Y1868779D01*
X8549487Y1884781D01*
X8551875Y1900580D01*
X8554466Y1914804D01*
X8557666Y1930501D01*
X8560460Y1947468D01*
X8563559Y1969312D01*
X8566912Y1996287D01*
X8574786Y2065883D01*
X8578138Y2091029D01*
X8579916Y2101291D01*
X8584031Y2121814D01*
X8585860Y2132787D01*
X8589619Y2160930D01*
X8594090Y2201824D01*
X8590381Y2220823D01*
X8588248Y2228799D01*
X8587486Y2230374D01*
X8585352Y2231491D01*
X8573566Y2236165D01*
X8558326Y2241753D01*
X8546236Y2246680D01*
X8537498Y2250948D01*
X8534603Y2252776D01*
X8532825Y2254250D01*
X8532215Y2255469D01*
X8531250Y2256586D01*
X8526983Y2258466D01*
X8517534Y2261768D01*
X8500922Y2267204D01*
X8492744Y2270099D01*
X8484819Y2273300D01*
X8478113Y2276348D01*
X8469122Y2281478D01*
X8463026Y2284272D01*
X8456066Y2287066D01*
X8422894Y2297938D01*
X8410803Y2302459D01*
X8406231Y2304389D01*
X8402624Y2306167D01*
X8397189Y2309266D01*
X8393023Y2311095D01*
X8381593Y2315260D01*
X8367369Y2319629D01*
X8341309Y2326741D01*
X8328710Y2330958D01*
X8318093Y2334920D01*
X8314690Y2336495D01*
X8311540Y2338425D01*
X8303463Y2341778D01*
X8283752Y2348738D01*
X8273542Y2346096D01*
X8263636Y2343251D01*
X8258505Y2340254D01*
X8256574Y2335276D01*
X8256371Y2323236D01*
X8257540Y2302256D01*
X8259572Y2277922D01*
X8260334Y2265883D01*
X8261299Y2237384D01*
X8261553Y2206040D01*
X8261096Y2175662D01*
X8260029Y2149957D01*
X8259318Y2140000D01*
X8258403Y2132685D01*
X8255101Y2118664D01*
X8258251Y2113483D01*
X8261350Y2109419D01*
X8265566Y2105507D01*
X8271002Y2101697D01*
X8277707Y2097938D01*
X8281212Y2096465D01*
X8284972Y2095855D01*
X8290001Y2096007D01*
X8303107Y2097532D01*
X8308492Y2097735D01*
X8313928Y2097379D01*
X8319820Y2096363D01*
X8326475Y2094636D01*
X8334451Y2092096D01*
X8377529Y2075789D01*
X8401202Y2054555D01*
X8410295Y2045665D01*
X8411616Y2043887D01*
X8412327Y2042363D01*
X8417255Y2034895D01*
X8424672Y2024583D01*
X8427770Y2019960D01*
X8430260Y2015743D01*
X8432292Y2011680D01*
X8433968Y2007362D01*
X8435390Y2002637D01*
X8438184Y1990496D01*
X8439353Y1983689D01*
X8440064Y1976526D01*
X8440470Y1969058D01*
X8440470Y1961388D01*
X8440115Y1953768D01*
X8439454Y1946249D01*
X8438489Y1938934D01*
X8437219Y1932076D01*
X8435644Y1925675D01*
X8433765Y1919986D01*
X8431682Y1915058D01*
X8429345Y1911096D01*
X8421116Y1899818D01*
X8413953Y1890979D01*
X8407755Y1884425D01*
X8404961Y1881936D01*
X8391194Y1871624D01*
X8384286Y1865985D01*
X8380425Y1863445D01*
X8376310Y1861210D01*
X8371789Y1859280D01*
X8366759Y1857603D01*
X8361222Y1856181D01*
X8355025Y1854911D01*
X8348065Y1853793D01*
X8335772Y1852574D01*
X8322868Y1852269D01*
X8309762Y1852828D01*
X8296960Y1854098D01*
X8284921Y1856079D01*
X8274100Y1858721D01*
X8269325Y1860296D01*
X8265058Y1861972D01*
X8261299Y1863750D01*
X8242858Y1876247D01*
X8229600Y1885543D01*
X8223656Y1890420D01*
X8218779Y1895093D01*
X8215375Y1899208D01*
X8208619Y1908505D01*
X8200237Y1919325D01*
X8196935Y1923999D01*
X8193938Y1929079D01*
X8191347Y1934565D01*
X8189163Y1940407D01*
X8187334Y1946554D01*
X8185912Y1952955D01*
X8184896Y1959559D01*
X8184286Y1966366D01*
X8184083Y1973325D01*
X7774253Y1973325D01*
X7778902Y1941779D01*
X7781239Y1928977D01*
X7783931Y1917242D01*
X7787030Y1906270D01*
X7790637Y1895551D01*
X7798308Y1876247D01*
X7801660Y1866950D01*
X7804556Y1858162D01*
X7808264Y1844751D01*
X7811312Y1834794D01*
X7812887Y1830527D01*
X7816697Y1822399D01*
X7824774Y1807972D01*
X7828025Y1801164D01*
X7831226Y1793748D01*
X7836916Y1779270D01*
X7840268Y1772056D01*
X7843875Y1765554D01*
X7850631Y1755546D01*
X7857744Y1743506D01*
X7863586Y1731924D01*
X7867345Y1725574D01*
X7871358Y1719427D01*
X7883245Y1703476D01*
X7893558Y1687271D01*
X7897469Y1681734D01*
X7901584Y1676400D01*
X7909001Y1668018D01*
X7915402Y1660194D01*
X7919008Y1654962D01*
X7924800Y1647698D01*
X7933131Y1637995D01*
X7954009Y1615033D01*
X7964779Y1603705D01*
X7974634Y1593697D01*
X7982610Y1585976D01*
X7990078Y1579473D01*
X7998510Y1571752D01*
X8004098Y1566214D01*
X8010855Y1561134D01*
X8017611Y1557121D01*
X8021878Y1554073D01*
X8026349Y1550517D01*
X8034985Y1542999D01*
X8040268Y1539036D01*
X8045754Y1535430D01*
X8055609Y1529892D01*
X8060639Y1526743D01*
X8065312Y1523441D01*
X8073288Y1517142D01*
X8079536Y1513078D01*
X8086953Y1508760D01*
X8102092Y1500886D01*
X8108899Y1497076D01*
X8114334Y1493723D01*
X8122412Y1487525D01*
X8128762Y1483715D01*
X8137245Y1479600D01*
X8153501Y1472590D01*
X8164677Y1466799D01*
X8173415Y1461414D01*
X8181644Y1457045D01*
X8185962Y1455166D01*
X8196021Y1451660D01*
X8221573Y1444396D01*
X8227009Y1442466D01*
X8235340Y1438605D01*
X8244941Y1434693D01*
X8255812Y1431239D01*
X8268614Y1428140D01*
X8283956Y1425194D01*
X8302396Y1422247D01*
X8319973Y1419707D01*
X8336076Y1416862D01*
X8351570Y1413814D01*
X8362238Y1411274D01*
X8366506Y1409649D01*
X8374532Y1408074D01*
X8386876Y1406601D01*
X8402370Y1405382D01*
X8419846Y1404416D01*
X8438134Y1403908D01*
X8455101Y1403807D01*
X8482126Y1404416D01*
X8493658Y1405128D01*
X8504377Y1406144D01*
X8514638Y1407515D01*
X8524748Y1409242D01*
X8544763Y1413662D01*
X8569706Y1418336D01*
X8617458Y1426006D01*
X8631021Y1428699D01*
X8642146Y1431493D01*
X8651951Y1434744D01*
X8670290Y1442618D01*
X8683193Y1446987D01*
X8697518Y1451051D01*
X8709101Y1454708D01*
X8713673Y1456436D01*
X8721242Y1460042D01*
X8730996Y1466392D01*
X8736025Y1469186D01*
X8741867Y1472082D01*
X8765082Y1482445D01*
X8772499Y1486509D01*
X8778443Y1490675D01*
X8784844Y1495755D01*
X8788958Y1498346D01*
X8793124Y1500632D01*
X8800846Y1503934D01*
X8809431Y1508302D01*
X8818372Y1513738D01*
X8826601Y1519631D01*
X8833510Y1525168D01*
X8837980Y1528165D01*
X8852865Y1536649D01*
X8857843Y1539951D01*
X8862314Y1543405D01*
X8868613Y1549501D01*
X8872067Y1552448D01*
X8875623Y1555038D01*
X8881465Y1558594D01*
X8889085Y1564335D01*
X8899042Y1572717D01*
X8910320Y1582928D01*
X8922156Y1594104D01*
X8933586Y1605432D01*
X8943746Y1615998D01*
X8951722Y1624990D01*
X8957665Y1632559D01*
X8963456Y1638858D01*
X8967520Y1642313D01*
X8970467Y1645666D01*
X8980881Y1660042D01*
X8984742Y1665071D01*
X8988399Y1669338D01*
X8994343Y1675536D01*
X8998153Y1680413D01*
X9002318Y1686356D01*
X9010142Y1698701D01*
X9013952Y1704086D01*
X9017203Y1708200D01*
X9021927Y1713026D01*
X9025280Y1718056D01*
X9029141Y1724761D01*
X9037218Y1740458D01*
X9041485Y1748129D01*
X9045397Y1754581D01*
X9051290Y1762861D01*
X9054439Y1768398D01*
X9057538Y1774748D01*
X9065615Y1795170D01*
X9069628Y1804670D01*
X9072880Y1810969D01*
X9077604Y1817776D01*
X9079382Y1821027D01*
X9083141Y1829968D01*
X9087154Y1841906D01*
X9093301Y1863191D01*
X9095841Y1870608D01*
X9098686Y1877822D01*
X9103410Y1888286D01*
X9107068Y1897227D01*
X9110218Y1907032D01*
X9113062Y1918157D01*
X9115704Y1931263D01*
X9123578Y1981809D01*
X9135160Y2051659D01*
X9135160Y2129993D01*
X9117888Y2239975D01*
X9115552Y2252573D01*
X9112808Y2265019D01*
X9109659Y2276906D01*
X9106357Y2287625D01*
X9103004Y2296718D01*
X9098737Y2306421D01*
X9096146Y2313025D01*
X9093911Y2319578D01*
X9090101Y2333498D01*
X9085580Y2348484D01*
X9081058Y2360676D01*
X9078925Y2365451D01*
X9076893Y2369210D01*
X9070848Y2377643D01*
X9069070Y2380843D01*
X9067749Y2383739D01*
X9064904Y2391206D01*
X9059062Y2404719D01*
X9053525Y2415895D01*
X9050934Y2420366D01*
X9048597Y2423922D01*
X9043974Y2429560D01*
X9041587Y2433066D01*
X9039555Y2436571D01*
X9036913Y2443022D01*
X9032951Y2451354D01*
X9025940Y2464257D01*
X9024975Y2466492D01*
X9021165Y2471064D01*
X9015069Y2477871D01*
X9011361Y2482850D01*
X9007754Y2488336D01*
X9001607Y2499004D01*
X8998000Y2504287D01*
X8994343Y2509012D01*
X8988094Y2515412D01*
X8985300Y2518765D01*
X8983014Y2522016D01*
X8980678Y2526487D01*
X8977985Y2530602D01*
X8973362Y2536240D01*
X8966250Y2544013D01*
X8942578Y2568143D01*
X8913622Y2596743D01*
X8902954Y2606903D01*
X8894521Y2614574D01*
X8888171Y2620010D01*
X8883548Y2623362D01*
X8879179Y2626055D01*
X8872016Y2631948D01*
X8864498Y2639161D01*
X8859926Y2642870D01*
X8855252Y2646121D01*
X8847023Y2650896D01*
X8842603Y2653893D01*
X8838488Y2657144D01*
X8831935Y2663240D01*
X8828481Y2666187D01*
X8822232Y2670505D01*
X8804148Y2680055D01*
X8793480Y2686354D01*
X8780526Y2695346D01*
X8774023Y2698750D01*
X8765844Y2702407D01*
X8747404Y2709519D01*
X8739530Y2712974D01*
X8733485Y2716123D01*
X8726170Y2721152D01*
X8720074Y2723946D01*
X8711234Y2727198D01*
X8694013Y2732532D01*
X8672931Y2739847D01*
X8664854Y2743098D01*
X8657539Y2746603D01*
X8649258Y2750210D01*
X8640216Y2753156D01*
X8634933Y2754579D01*
X8621572Y2757373D01*
X8603234Y2760675D01*
X8562898Y2767228D01*
X8541308Y2771089D01*
X8537651Y2771952D01*
X8535365Y2772918D01*
X8531707Y2773883D01*
X8521039Y2775712D01*
X8506561Y2777185D01*
X8489289Y2778302D01*
X8474659Y2778861D01*
G37*
G36*
X8280400Y2498191D02*
G01*
X8265617Y2497023D01*
X8256778Y2496921D01*
X8253831Y2485339D01*
X8252764Y2480056D01*
X8252104Y2474468D01*
X8251799Y2468626D01*
X8251901Y2462682D01*
X8252358Y2456738D01*
X8253171Y2450947D01*
X8254339Y2445410D01*
X8255863Y2440279D01*
X8258505Y2433777D01*
X8261654Y2428240D01*
X8265414Y2423617D01*
X8269986Y2419756D01*
X8275472Y2416606D01*
X8282025Y2414016D01*
X8289848Y2411882D01*
X8305088Y2409037D01*
X8317738Y2406040D01*
X8329320Y2402535D01*
X8334044Y2400808D01*
X8337651Y2399233D01*
X8342325Y2396185D01*
X8349843Y2392375D01*
X8360409Y2388158D01*
X8373160Y2383840D01*
X8388858Y2378964D01*
X8398256Y2375458D01*
X8407146Y2371699D01*
X8421471Y2364638D01*
X8429904Y2361082D01*
X8438540Y2357780D01*
X8461654Y2350363D01*
X8469680Y2346909D01*
X8482888Y2339441D01*
X8486902Y2337409D01*
X8500567Y2331720D01*
X8516975Y2325522D01*
X8525459Y2321814D01*
X8533028Y2318004D01*
X8544102Y2311298D01*
X8550706Y2307691D01*
X8557666Y2304288D01*
X8579916Y2294686D01*
X8582558Y2293264D01*
X8586266Y2290876D01*
X8592921Y2299868D01*
X8596325Y2304897D01*
X8598509Y2309418D01*
X8599779Y2314498D01*
X8603183Y2342337D01*
X8605520Y2358034D01*
X8605977Y2363571D01*
X8605570Y2367127D01*
X8604453Y2369718D01*
X8601456Y2375408D01*
X8597747Y2383637D01*
X8593429Y2392019D01*
X8588552Y2397658D01*
X8582406Y2401062D01*
X8574227Y2402738D01*
X8555888Y2405430D01*
X8547608Y2407107D01*
X8540038Y2408986D01*
X8533180Y2411069D01*
X8527135Y2413254D01*
X8521954Y2415641D01*
X8514486Y2419959D01*
X8505088Y2423668D01*
X8491118Y2427681D01*
X8472170Y2432202D01*
X8460689Y2434640D01*
X8455914Y2435961D01*
X8450529Y2437892D01*
X8445246Y2440228D01*
X8431936Y2447340D01*
X8427364Y2449372D01*
X8417153Y2453081D01*
X8404758Y2456586D01*
X8390026Y2460193D01*
X8378698Y2463241D01*
X8370722Y2466086D01*
X8364321Y2469337D01*
X8357971Y2473350D01*
X8351672Y2476601D01*
X8346186Y2478227D01*
X8316925Y2485644D01*
X8302294Y2489657D01*
X8293100Y2492654D01*
X8290153Y2493924D01*
X8288172Y2495042D01*
X8285429Y2497378D01*
X8283295Y2498039D01*
G37*
G36*
X4635804Y2373528D02*
G01*
X4620768Y2373274D01*
X4605680Y2372410D01*
X4590948Y2371090D01*
X4576927Y2369261D01*
X4564024Y2367026D01*
X4552645Y2364435D01*
X4547616Y2362962D01*
X4536440Y2359152D01*
X4520641Y2354427D01*
X4506671Y2350820D01*
X4499356Y2348585D01*
X4492498Y2346198D01*
X4487011Y2343962D01*
X4475937Y2338933D01*
X4475937Y2325420D01*
X4476140Y2318156D01*
X4476953Y2312365D01*
X4478629Y2306929D01*
X4483862Y2295093D01*
X4486605Y2288032D01*
X4489246Y2280412D01*
X4493818Y2265222D01*
X4495952Y2258974D01*
X4498086Y2254046D01*
X4500372Y2250236D01*
X4503115Y2247188D01*
X4506468Y2244648D01*
X4510684Y2242362D01*
X4529328Y2234184D01*
X4535474Y2237790D01*
X4538522Y2239162D01*
X4543348Y2240889D01*
X4557217Y2244902D01*
X4574438Y2249322D01*
X4592523Y2253437D01*
X4608880Y2256637D01*
X4615637Y2257755D01*
X4620971Y2258364D01*
X4626864Y2258618D01*
X4633671Y2258415D01*
X4648301Y2257044D01*
X4655210Y2255977D01*
X4661204Y2254758D01*
X4665878Y2253437D01*
X4670348Y2251100D01*
X4686909Y2243886D01*
X4690922Y2241854D01*
X4694580Y2239619D01*
X4697984Y2237079D01*
X4701235Y2234184D01*
X4707940Y2226716D01*
X4714697Y2217928D01*
X4721453Y2209698D01*
X4726838Y2203653D01*
X4729022Y2200706D01*
X4730953Y2197455D01*
X4732680Y2193594D01*
X4734407Y2188819D01*
X4738268Y2175306D01*
X4742180Y2159406D01*
X4744974Y2146655D01*
X4747260Y2134463D01*
X4749088Y2122779D01*
X4750358Y2111400D01*
X4751171Y2100326D01*
X4751425Y2089353D01*
X4751171Y2078431D01*
X4750460Y2067509D01*
X4749190Y2056384D01*
X4747412Y2045004D01*
X4745075Y2033320D01*
X4742281Y2021128D01*
X4738928Y2008378D01*
X4735474Y1996693D01*
X4733899Y1992325D01*
X4732020Y1988312D01*
X4729581Y1984349D01*
X4726432Y1980031D01*
X4716881Y1969007D01*
X4701540Y1952802D01*
X4694224Y1946402D01*
X4690618Y1943862D01*
X4686909Y1941728D01*
X4682896Y1939848D01*
X4678426Y1938223D01*
X4667605Y1935225D01*
X4653178Y1932127D01*
X4641900Y1930247D01*
X4636363Y1929638D01*
X4624984Y1929130D01*
X4612538Y1929587D01*
X4598111Y1931060D01*
X4580890Y1933549D01*
X4560519Y1937054D01*
X4550968Y1938985D01*
X4542282Y1941017D01*
X4534458Y1943150D01*
X4527499Y1945335D01*
X4521352Y1947570D01*
X4516120Y1949957D01*
X4511700Y1952396D01*
X4504842Y1955495D01*
X4499864Y1954530D01*
X4496003Y1948891D01*
X4492447Y1937969D01*
X4491786Y1934464D01*
X4490872Y1922830D01*
X4490415Y1906981D01*
X4490415Y1889506D01*
X4490821Y1872996D01*
X4491736Y1860042D01*
X4493107Y1851964D01*
X4493920Y1848764D01*
X4495038Y1846021D01*
X4496562Y1843633D01*
X4498695Y1841601D01*
X4501642Y1839671D01*
X4505553Y1837893D01*
X4510633Y1836064D01*
X4525060Y1832000D01*
X4561840Y1822907D01*
X4574590Y1819960D01*
X4585462Y1817827D01*
X4595266Y1816354D01*
X4604969Y1815388D01*
X4615434Y1814830D01*
X4642205Y1814525D01*
X4660138Y1814728D01*
X4674717Y1815287D01*
X4686808Y1816354D01*
X4697374Y1818030D01*
X4707331Y1820367D01*
X4726584Y1826260D01*
X4745532Y1831035D01*
X4753102Y1833168D01*
X4759909Y1835404D01*
X4766106Y1837791D01*
X4771694Y1840331D01*
X4776774Y1843024D01*
X4781346Y1845919D01*
X4789728Y1852320D01*
X4793589Y1854962D01*
X4796688Y1856790D01*
X4800244Y1858060D01*
X4802886Y1859788D01*
X4810353Y1865934D01*
X4819497Y1874570D01*
X4829048Y1884324D01*
X4837531Y1893874D01*
X4843678Y1901901D01*
X4850739Y1911959D01*
X4853635Y1915668D01*
X4857394Y1919630D01*
X4859121Y1921865D01*
X4860899Y1924761D01*
X4862677Y1928317D01*
X4866640Y1938121D01*
X4877612Y1969719D01*
X4880406Y1976831D01*
X4884064Y1985060D01*
X4885537Y1988972D01*
X4888179Y1998370D01*
X4890465Y2009749D01*
X4892446Y2022856D01*
X4894021Y2037486D01*
X4895138Y2053437D01*
X4895850Y2070557D01*
X4896104Y2088540D01*
X4895850Y2107234D01*
X4895138Y2124405D01*
X4893970Y2140051D01*
X4892294Y2154275D01*
X4890109Y2167178D01*
X4887417Y2178710D01*
X4884267Y2189073D01*
X4875733Y2209647D01*
X4873802Y2214981D01*
X4870805Y2225141D01*
X4868722Y2231339D01*
X4866284Y2237486D01*
X4863642Y2243328D01*
X4860899Y2248763D01*
X4858207Y2253386D01*
X4855667Y2257145D01*
X4850790Y2262276D01*
X4847996Y2265934D01*
X4845354Y2270048D01*
X4840833Y2278532D01*
X4837887Y2283002D01*
X4834636Y2287168D01*
X4819650Y2302052D01*
X4811318Y2310993D01*
X4805527Y2316530D01*
X4800904Y2319934D01*
X4792573Y2324252D01*
X4788763Y2326741D01*
X4785156Y2329637D01*
X4779162Y2335174D01*
X4774742Y2338171D01*
X4769256Y2341270D01*
X4763109Y2344369D01*
X4756505Y2347264D01*
X4749850Y2349855D01*
X4743399Y2351989D01*
X4734102Y2354478D01*
X4723790Y2358339D01*
X4714544Y2362301D01*
X4710379Y2363774D01*
X4700524Y2366467D01*
X4689144Y2368854D01*
X4676698Y2370836D01*
X4663643Y2372309D01*
X4650435Y2373223D01*
G37*
G36*
X5251450Y2369566D02*
G01*
X5209641Y2369312D01*
X5178094Y2368854D01*
X5154523Y2368194D01*
X5131765Y2366822D01*
X5121757Y2346706D01*
X5116880Y2334869D01*
X5114391Y2326995D01*
X5111496Y2319629D01*
X5108041Y2313025D01*
X5103876Y2303221D01*
X5099507Y2290368D01*
X5094833Y2274214D01*
X5090972Y2259634D01*
X5087721Y2248763D01*
X5084267Y2238400D01*
X5080965Y2229764D01*
X5078069Y2223160D01*
X5074666Y2214016D01*
X5070906Y2202637D01*
X5067350Y2190445D01*
X5062677Y2172970D01*
X5056936Y2154478D01*
X5055057Y2149754D01*
X5050739Y2140813D01*
X5046624Y2129840D01*
X5042357Y2116175D01*
X5034991Y2088997D01*
X5032044Y2079193D01*
X5029250Y2070912D01*
X5026154Y2063394D01*
X5164531Y2063394D01*
X5164785Y2067102D01*
X5165547Y2072538D01*
X5168442Y2087270D01*
X5172506Y2104745D01*
X5177028Y2122220D01*
X5181396Y2136952D01*
X5183276Y2142388D01*
X5186324Y2149500D01*
X5187848Y2153767D01*
X5190947Y2165146D01*
X5194249Y2180488D01*
X5199430Y2209342D01*
X5203342Y2226360D01*
X5205069Y2231999D01*
X5206746Y2236216D01*
X5210403Y2243683D01*
X5211927Y2245969D01*
X5215026Y2249932D01*
X5225948Y2236622D01*
X5231028Y2229053D01*
X5235803Y2220366D01*
X5240172Y2210714D01*
X5244236Y2200046D01*
X5247843Y2188413D01*
X5251094Y2175865D01*
X5253939Y2162352D01*
X5259070Y2133904D01*
X5261457Y2122678D01*
X5263946Y2112721D01*
X5266791Y2103221D01*
X5270195Y2093315D01*
X5280609Y2065274D01*
X5270042Y2045766D01*
X5254294Y2042261D01*
X5245963Y2041194D01*
X5235346Y2040534D01*
X5222341Y2040178D01*
X5184394Y2040128D01*
X5178348Y2043887D01*
X5173421Y2047900D01*
X5169001Y2053183D01*
X5165801Y2058670D01*
X5164531Y2063394D01*
X5026154Y2063394D01*
X5019852Y2048764D01*
X5016296Y2038248D01*
X5012588Y2024786D01*
X5008981Y2010664D01*
X5005832Y1999792D01*
X5002580Y1989683D01*
X4999634Y1981606D01*
X4991658Y1963470D01*
X4988560Y1954072D01*
X4980025Y1921205D01*
X4977485Y1912213D01*
X4975301Y1905457D01*
X4971186Y1896567D01*
X4967478Y1887067D01*
X4962804Y1873961D01*
X4953203Y1844598D01*
X4959604Y1832000D01*
X4963261Y1826158D01*
X4964582Y1824634D01*
X4966004Y1824177D01*
X4969052Y1823720D01*
X4980076Y1823059D01*
X4997856Y1822602D01*
X5078018Y1822145D01*
X5097322Y1833270D01*
X5101437Y1835962D01*
X5104536Y1838858D01*
X5106873Y1842465D01*
X5108752Y1847291D01*
X5110480Y1853946D01*
X5116728Y1886153D01*
X5118912Y1895144D01*
X5121249Y1902155D01*
X5124043Y1907539D01*
X5127548Y1911705D01*
X5131968Y1915058D01*
X5137607Y1917903D01*
X5152898Y1923694D01*
X5297271Y1922983D01*
X5303672Y1917903D01*
X5309616Y1912213D01*
X5314797Y1905254D01*
X5319217Y1897024D01*
X5326837Y1876298D01*
X5328462Y1872843D01*
X5331358Y1864106D01*
X5336032Y1848307D01*
X5339080Y1840941D01*
X5342890Y1834845D01*
X5348173Y1828647D01*
X5353710Y1822704D01*
X5464098Y1822704D01*
X5473852Y1826463D01*
X5482386Y1830070D01*
X5487365Y1833372D01*
X5489752Y1837182D01*
X5490514Y1842566D01*
X5490413Y1846224D01*
X5489803Y1849221D01*
X5488635Y1851863D01*
X5482691Y1859889D01*
X5478881Y1867662D01*
X5475681Y1876704D01*
X5473496Y1886102D01*
X5470398Y1900885D01*
X5466334Y1916684D01*
X5462219Y1930146D01*
X5460390Y1934921D01*
X5455412Y1944471D01*
X5451754Y1953463D01*
X5448503Y1963470D01*
X5446064Y1973224D01*
X5442661Y1988210D01*
X5438394Y2003094D01*
X5433669Y2016556D01*
X5431282Y2022348D01*
X5426202Y2033422D01*
X5423408Y2041093D01*
X5420817Y2049424D01*
X5412638Y2082038D01*
X5408472Y2094890D01*
X5406237Y2100681D01*
X5398770Y2117090D01*
X5396230Y2123795D01*
X5394045Y2130704D01*
X5392420Y2137003D01*
X5388305Y2155291D01*
X5384139Y2170176D01*
X5379669Y2182723D01*
X5372150Y2199741D01*
X5369255Y2207869D01*
X5366410Y2217267D01*
X5357012Y2253183D01*
X5353202Y2264918D01*
X5348986Y2275078D01*
X5346446Y2280412D01*
X5343601Y2287168D01*
X5340604Y2295804D01*
X5337759Y2305405D01*
X5333238Y2324150D01*
X5329072Y2339238D01*
X5327548Y2343454D01*
X5322925Y2350262D01*
X5315661Y2358085D01*
X5308244Y2364536D01*
X5303113Y2367229D01*
X5300827Y2367584D01*
X5299354Y2368550D01*
X5296763Y2368905D01*
X5279644Y2369413D01*
G37*
G36*
X7438085Y2367229D02*
G01*
X7393990Y2367076D01*
X7363155Y2366467D01*
X7351166Y2365857D01*
X7340600Y2365044D01*
X7330897Y2363978D01*
X7321448Y2362606D01*
X7300772Y2358694D01*
X7277353Y2353868D01*
X7259878Y2349804D01*
X7247128Y2346198D01*
X7237730Y2342540D01*
X7233920Y2340559D01*
X7227214Y2336038D01*
X7201916Y2316124D01*
X7197191Y2311857D01*
X7187996Y2302103D01*
X7183831Y2297023D01*
X7180173Y2292045D01*
X7177176Y2287320D01*
X7164070Y2259025D01*
X7160412Y2249830D01*
X7157669Y2241042D01*
X7155738Y2231898D01*
X7154418Y2221636D01*
X7153554Y2209596D01*
X7153220Y2201570D01*
X7297318Y2201570D01*
X7304786Y2222652D01*
X7307630Y2228697D01*
X7310831Y2233574D01*
X7314590Y2237486D01*
X7319213Y2240737D01*
X7324852Y2243480D01*
X7331862Y2245918D01*
X7340447Y2248306D01*
X7350556Y2250592D01*
X7359599Y2251913D01*
X7367625Y2252319D01*
X7374737Y2251710D01*
X7381087Y2250135D01*
X7386675Y2247595D01*
X7391755Y2244039D01*
X7396276Y2239416D01*
X7398562Y2236571D01*
X7400290Y2233777D01*
X7401509Y2230424D01*
X7402322Y2225903D01*
X7402728Y2219553D01*
X7402931Y2210765D01*
X7402118Y2141270D01*
X7397089Y2133701D01*
X7391603Y2126488D01*
X7385964Y2122322D01*
X7378750Y2120493D01*
X7368590Y2120290D01*
X7362190Y2120900D01*
X7355230Y2122170D01*
X7348016Y2124049D01*
X7340853Y2126386D01*
X7333996Y2129078D01*
X7327747Y2132076D01*
X7322464Y2135174D01*
X7318400Y2138375D01*
X7314895Y2142236D01*
X7311491Y2147265D01*
X7308240Y2153158D01*
X7305294Y2159711D01*
X7302703Y2166620D01*
X7300620Y2173630D01*
X7299147Y2180539D01*
X7298334Y2187092D01*
X7297318Y2201570D01*
X7153220Y2201570D01*
X7152995Y2193290D01*
X7153300Y2175865D01*
X7153808Y2167839D01*
X7154570Y2160219D01*
X7155586Y2152954D01*
X7156856Y2146096D01*
X7158380Y2139594D01*
X7160158Y2133396D01*
X7162190Y2127605D01*
X7164527Y2122068D01*
X7168692Y2113584D01*
X7172248Y2104847D01*
X7175550Y2095652D01*
X7177836Y2090775D01*
X7180630Y2085898D01*
X7183932Y2080869D01*
X7187793Y2075789D01*
X7192213Y2070557D01*
X7197140Y2065223D01*
X7202678Y2059736D01*
X7215479Y2048357D01*
X7230668Y2036267D01*
X7235545Y2032863D01*
X7240422Y2029866D01*
X7244791Y2027580D01*
X7248042Y2026412D01*
X7258558Y2023465D01*
X7288682Y2013966D01*
X7300874Y2010765D01*
X7312659Y2008276D01*
X7324801Y2006498D01*
X7338009Y2005228D01*
X7363510Y2003806D01*
X7371994Y2003043D01*
X7378801Y2001977D01*
X7384288Y2000554D01*
X7388656Y1998624D01*
X7392314Y1996084D01*
X7395514Y1992833D01*
X7398613Y1988820D01*
X7403338Y1981962D01*
X7402728Y1894484D01*
X7402728Y1867916D01*
X7403185Y1850694D01*
X7403642Y1844802D01*
X7404353Y1840433D01*
X7405370Y1837283D01*
X7406589Y1834997D01*
X7408164Y1833372D01*
X7410094Y1832051D01*
X7415834Y1829104D01*
X7422184Y1826412D01*
X7425436Y1825396D01*
X7428941Y1824583D01*
X7437475Y1823466D01*
X7449058Y1822856D01*
X7465009Y1822551D01*
X7517282Y1822246D01*
X7535519Y1831543D01*
X7543088Y1836013D01*
X7544562Y1837232D01*
X7544968Y1852015D01*
X7545476Y1956104D01*
X7545578Y2185466D01*
X7545070Y2315667D01*
X7544765Y2343251D01*
X7544562Y2347264D01*
X7540548Y2351176D01*
X7521600Y2367229D01*
G37*
G36*
X4364380Y2367229D02*
G01*
X4080357Y2367026D01*
X4072128Y2363876D01*
X4067810Y2361946D01*
X4064609Y2359660D01*
X4062069Y2356459D01*
X4059478Y2351684D01*
X4055059Y2342540D01*
X4055313Y2278583D01*
X4059275Y2268169D01*
X4061053Y2264003D01*
X4062984Y2260498D01*
X4064762Y2258060D01*
X4066286Y2256942D01*
X4074871Y2254707D01*
X4078630Y2254300D01*
X4097274Y2253640D01*
X4126484Y2253183D01*
X4206443Y2252878D01*
X4216958Y2248560D01*
X4221124Y2246579D01*
X4224832Y2244140D01*
X4228033Y2241346D01*
X4230725Y2238044D01*
X4232960Y2234234D01*
X4234738Y2229967D01*
X4236110Y2225141D01*
X4236974Y2219706D01*
X4237431Y2213711D01*
X4237482Y2207056D01*
X4237126Y2199792D01*
X4236313Y2191816D01*
X4234434Y2180234D01*
X4231589Y2172258D01*
X4227372Y2167077D01*
X4221327Y2163775D01*
X4214317Y2161438D01*
X4207205Y2159812D01*
X4203141Y2159203D01*
X4192930Y2158492D01*
X4178757Y2158187D01*
X4092143Y2158898D01*
X4082440Y2153716D01*
X4077106Y2150414D01*
X4072077Y2146554D01*
X4073042Y2061565D01*
X4087114Y2050186D01*
X4208272Y2048357D01*
X4230217Y2037384D01*
X4238091Y2010003D01*
X4236161Y1955190D01*
X4232300Y1949348D01*
X4229862Y1946351D01*
X4226712Y1943912D01*
X4222445Y1941830D01*
X4216501Y1939696D01*
X4204614Y1935937D01*
X4101439Y1934921D01*
X4085336Y1934362D01*
X4074515Y1933549D01*
X4067454Y1932330D01*
X4064812Y1931517D01*
X4060494Y1929384D01*
X4057040Y1927352D01*
X4054195Y1843735D01*
X4063339Y1826869D01*
X4077157Y1824583D01*
X4086402Y1823974D01*
X4125518Y1823161D01*
X4204208Y1822754D01*
X4365396Y1822805D01*
X4375505Y1842770D01*
X4375302Y2234387D01*
X4374946Y2290622D01*
X4374489Y2327656D01*
X4373727Y2345994D01*
G37*
G36*
X5652922Y2325166D02*
G01*
X5641644Y2311552D01*
X5641441Y2281377D01*
X5641086Y2273198D01*
X5640527Y2266492D01*
X5639663Y2261108D01*
X5638444Y2256790D01*
X5636818Y2253234D01*
X5634736Y2250186D01*
X5632145Y2247392D01*
X5625693Y2241346D01*
X5577789Y2240178D01*
X5567578Y2239721D01*
X5559450Y2239111D01*
X5553049Y2238298D01*
X5548071Y2237232D01*
X5544312Y2235911D01*
X5541416Y2234184D01*
X5539079Y2232101D01*
X5535676Y2228494D01*
X5535930Y2183434D01*
X5536590Y2164232D01*
X5537200Y2157272D01*
X5538012Y2151837D01*
X5539079Y2147824D01*
X5540349Y2145030D01*
X5541873Y2143302D01*
X5544566Y2141982D01*
X5548782Y2140813D01*
X5554472Y2139746D01*
X5561380Y2138883D01*
X5569407Y2138172D01*
X5588203Y2137308D01*
X5626150Y2137308D01*
X5641848Y2119985D01*
X5640730Y1955190D01*
X5637377Y1949043D01*
X5633415Y1942998D01*
X5628640Y1937715D01*
X5623306Y1933549D01*
X5617768Y1930654D01*
X5611266Y1927910D01*
X5604459Y1924608D01*
X5598515Y1922424D01*
X5591556Y1921865D01*
X5582767Y1922983D01*
X5559552Y1928875D01*
X5550662Y1930552D01*
X5544261Y1930958D01*
X5540044Y1930095D01*
X5537708Y1928368D01*
X5535828Y1925523D01*
X5534304Y1921306D01*
X5533186Y1915668D01*
X5532374Y1908403D01*
X5531866Y1899412D01*
X5531662Y1888540D01*
X5532221Y1843735D01*
X5540400Y1835505D01*
X5542788Y1833575D01*
X5544870Y1832305D01*
X5548884Y1831339D01*
X5560110Y1828088D01*
X5574639Y1823313D01*
X5586730Y1819656D01*
X5597144Y1817116D01*
X5607456Y1815592D01*
X5619140Y1814830D01*
X5633720Y1814575D01*
X5677306Y1814626D01*
X5696966Y1820875D01*
X5708650Y1825345D01*
X5716778Y1829104D01*
X5725160Y1832406D01*
X5732475Y1834845D01*
X5735929Y1836826D01*
X5739231Y1839518D01*
X5762091Y1865579D01*
X5766358Y1872234D01*
X5769457Y1879701D01*
X5772099Y1889404D01*
X5775248Y1904644D01*
X5776417Y1912366D01*
X5777331Y1921002D01*
X5778093Y1931060D01*
X5779109Y1957933D01*
X5779770Y1997506D01*
X5780887Y2119376D01*
X5786678Y2125218D01*
X5792114Y2129332D01*
X5799378Y2133142D01*
X5807049Y2135886D01*
X5813450Y2137003D01*
X5815126Y2137460D01*
X5817514Y2138730D01*
X5820257Y2140610D01*
X5829655Y2148840D01*
X5833262Y2173376D01*
X5824016Y2196846D01*
X5820613Y2202535D01*
X5816092Y2206345D01*
X5808827Y2210104D01*
X5804103Y2212949D01*
X5798362Y2217318D01*
X5791962Y2222754D01*
X5785408Y2228900D01*
X5779160Y2235250D01*
X5773521Y2241499D01*
X5769051Y2247138D01*
X5762853Y2257348D01*
X5761482Y2259279D01*
X5760415Y2260295D01*
X5757672Y2263597D01*
X5754268Y2270302D01*
X5750255Y2280208D01*
X5743295Y2300427D01*
X5741162Y2306066D01*
X5739079Y2310333D01*
X5736894Y2313584D01*
X5734354Y2315972D01*
X5731154Y2317902D01*
X5727141Y2319528D01*
X5718505Y2322271D01*
X5711139Y2323795D01*
X5702147Y2324658D01*
X5689650Y2325014D01*
G37*
G36*
X6807453Y2246325D02*
G01*
X6802577Y2245614D01*
X6792163Y2243531D01*
X6784594Y2241702D01*
X6779564Y2239924D01*
X6776161Y2237689D01*
X6773316Y2234539D01*
X6768846Y2228646D01*
X6778701Y2145182D01*
X6788403Y2126945D01*
X6791401Y2122525D01*
X6794449Y2119172D01*
X6797700Y2116785D01*
X6801408Y2115312D01*
X6805675Y2114600D01*
X6810654Y2114600D01*
X6822236Y2115870D01*
X6827977Y2116124D01*
X6833768Y2116074D01*
X6839813Y2115616D01*
X6846214Y2114804D01*
X6860438Y2112010D01*
X6886702Y2105202D01*
X6895033Y2096770D01*
X6902754Y2087981D01*
X6906564Y2083104D01*
X6916928Y2068372D01*
X6919214Y2065578D01*
X6920839Y2062327D01*
X6922211Y2057552D01*
X6923328Y2050948D01*
X6924243Y2042160D01*
X6924954Y2030882D01*
X6925818Y1999234D01*
X6926122Y1953361D01*
X6926173Y1844446D01*
X6930593Y1835962D01*
X6934708Y1830171D01*
X6936740Y1827733D01*
X6941464Y1822704D01*
X7051395Y1822704D01*
X7063181Y1844192D01*
X7063181Y2228291D01*
X7049465Y2241042D01*
X6995363Y2240635D01*
X6986473Y2240229D01*
X6979056Y2239568D01*
X6973011Y2238654D01*
X6968185Y2237384D01*
X6964375Y2235708D01*
X6961479Y2233574D01*
X6959244Y2230932D01*
X6957618Y2227732D01*
X6956399Y2223922D01*
X6953605Y2211476D01*
X6951675Y2205228D01*
X6949135Y2199741D01*
X6945680Y2194102D01*
X6941667Y2188159D01*
X6914896Y2188159D01*
X6888937Y2214270D01*
X6882892Y2219858D01*
X6877253Y2224684D01*
X6871817Y2228850D01*
X6866483Y2232355D01*
X6861098Y2235301D01*
X6855510Y2237790D01*
X6849719Y2239822D01*
X6843471Y2241448D01*
X6836714Y2242820D01*
G37*
G36*
X6502247Y2246325D02*
G01*
X6492748Y2245969D01*
X6479641Y2245055D01*
X6450736Y2242261D01*
X6438950Y2240737D01*
X6427470Y2238552D01*
X6421018Y2236927D01*
X6415125Y2235098D01*
X6409842Y2233015D01*
X6404965Y2230678D01*
X6400444Y2228037D01*
X6396126Y2225040D01*
X6387744Y2218080D01*
X6377432Y2210511D01*
X6367526Y2204008D01*
X6363716Y2200757D01*
X6360871Y2197303D01*
X6356959Y2189886D01*
X6352489Y2182164D01*
X6347206Y2174290D01*
X6344158Y2169261D01*
X6341211Y2163876D01*
X6336030Y2152700D01*
X6333896Y2147214D01*
X6332118Y2141880D01*
X6330543Y2135682D01*
X6329629Y2127910D01*
X6328918Y2114753D01*
X6327952Y2064461D01*
X6327384Y1982419D01*
X6462369Y1982419D01*
X6465163Y1988007D01*
X6469278Y1995170D01*
X6473342Y2000504D01*
X6477762Y2004364D01*
X6482842Y2007158D01*
X6486956Y2008733D01*
X6491020Y2009952D01*
X6495084Y2010867D01*
X6499250Y2011375D01*
X6503568Y2011476D01*
X6508089Y2011222D01*
X6512915Y2010613D01*
X6523735Y2008124D01*
X6536537Y2004009D01*
X6543852Y2001367D01*
X6551625Y1998116D01*
X6558076Y1994712D01*
X6563309Y1990902D01*
X6567576Y1986483D01*
X6571081Y1981200D01*
X6573875Y1974900D01*
X6576212Y1967280D01*
X6578295Y1958136D01*
X6578498Y1954479D01*
X6577990Y1949957D01*
X6576771Y1944878D01*
X6574993Y1939543D01*
X6572808Y1934210D01*
X6570218Y1929130D01*
X6567474Y1924659D01*
X6564579Y1921002D01*
X6557975Y1914093D01*
X6543649Y1912010D01*
X6535826Y1911146D01*
X6528460Y1911045D01*
X6521602Y1911553D01*
X6515201Y1912772D01*
X6509207Y1914753D01*
X6503670Y1917344D01*
X6498488Y1920697D01*
X6493662Y1924761D01*
X6488480Y1930095D01*
X6483553Y1935734D01*
X6479032Y1941575D01*
X6475018Y1947519D01*
X6471513Y1953412D01*
X6468618Y1959203D01*
X6466433Y1964689D01*
X6465011Y1969820D01*
X6462369Y1982419D01*
X6327384Y1982419D01*
X6326581Y1843125D01*
X6332575Y1831695D01*
X6334810Y1828546D01*
X6337350Y1826260D01*
X6340652Y1824634D01*
X6345021Y1823618D01*
X6350863Y1823008D01*
X6368288Y1822704D01*
X6379464Y1822856D01*
X6400393Y1823923D01*
X6407607Y1824685D01*
X6420967Y1826717D01*
X6429146Y1838960D01*
X6436715Y1851710D01*
X6440932Y1857146D01*
X6448348Y1864207D01*
X6475577Y1862480D01*
X6493814Y1843989D01*
X6498894Y1839518D01*
X6503111Y1836216D01*
X6505905Y1834642D01*
X6513982Y1831797D01*
X6535521Y1823567D01*
X6542938Y1820976D01*
X6549542Y1818944D01*
X6555740Y1817370D01*
X6561988Y1816201D01*
X6576212Y1814728D01*
X6584950Y1814220D01*
X6594246Y1813966D01*
X6603492Y1814118D01*
X6612432Y1814677D01*
X6620814Y1815592D01*
X6628333Y1816811D01*
X6634683Y1818284D01*
X6639661Y1820011D01*
X6644995Y1823212D01*
X6653022Y1826818D01*
X6663537Y1831035D01*
X6668922Y1833778D01*
X6674205Y1837029D01*
X6679234Y1840687D01*
X6684111Y1844751D01*
X6688683Y1849120D01*
X6692950Y1853844D01*
X6696964Y1858822D01*
X6700520Y1864055D01*
X6703720Y1869490D01*
X6706514Y1875078D01*
X6723634Y1921916D01*
X6722414Y1978914D01*
X6718401Y1984400D01*
X6716623Y1987346D01*
X6712813Y1995627D01*
X6709613Y2004517D01*
X6707276Y2009597D01*
X6704685Y2014524D01*
X6696405Y2027428D01*
X6694728Y2030831D01*
X6691934Y2034082D01*
X6688836Y2037029D01*
X6678168Y2043074D01*
X6663181Y2052624D01*
X6648602Y2061616D01*
X6643420Y2064512D01*
X6639102Y2066645D01*
X6635242Y2068169D01*
X6631431Y2069388D01*
X6622135Y2071522D01*
X6610197Y2073706D01*
X6596532Y2075789D01*
X6581648Y2077669D01*
X6566153Y2079294D01*
X6550710Y2080615D01*
X6535928Y2081580D01*
X6522313Y2082088D01*
X6506464Y2082342D01*
X6499504Y2083003D01*
X6493713Y2084425D01*
X6487617Y2086864D01*
X6477101Y2091588D01*
X6469227Y2118156D01*
X6483096Y2132482D01*
X6487769Y2136851D01*
X6492087Y2140407D01*
X6496304Y2143302D01*
X6500520Y2145690D01*
X6504940Y2147620D01*
X6509715Y2149195D01*
X6514998Y2150567D01*
X6520891Y2151786D01*
X6526326Y2152497D01*
X6531711Y2152650D01*
X6537502Y2152243D01*
X6544259Y2151126D01*
X6552438Y2149297D01*
X6593738Y2138121D01*
X6608064Y2134616D01*
X6619849Y2132279D01*
X6640372Y2129637D01*
X6645656Y2138070D01*
X6648043Y2142337D01*
X6650634Y2147773D01*
X6653072Y2153666D01*
X6656984Y2164689D01*
X6659219Y2169769D01*
X6661505Y2174087D01*
X6665569Y2179574D01*
X6667804Y2183130D01*
X6670040Y2187194D01*
X6675932Y2200859D01*
X6671767Y2207209D01*
X6669430Y2210104D01*
X6666280Y2212949D01*
X6662623Y2215540D01*
X6654749Y2219655D01*
X6647484Y2223820D01*
X6642912Y2226919D01*
X6640322Y2228240D01*
X6633311Y2230882D01*
X6624269Y2233371D01*
X6613347Y2235758D01*
X6600748Y2237994D01*
X6586778Y2240026D01*
X6571640Y2241804D01*
X6555536Y2243328D01*
X6538722Y2244547D01*
G37*
G36*
X6026200Y2246071D02*
G01*
X6012484Y2245868D01*
X5998057Y2245156D01*
X5983325Y2244039D01*
X5968746Y2242515D01*
X5954674Y2240686D01*
X5941618Y2238552D01*
X5929884Y2236165D01*
X5919978Y2233574D01*
X5915761Y2232202D01*
X5907786Y2228748D01*
X5901690Y2224379D01*
X5896813Y2218639D01*
X5892596Y2210816D01*
X5888329Y2201468D01*
X5891123Y2193442D01*
X5892698Y2189530D01*
X5897473Y2179878D01*
X5902909Y2170430D01*
X5905855Y2164638D01*
X5914694Y2144064D01*
X5919063Y2135530D01*
X5923229Y2128824D01*
X5926378Y2125319D01*
X5927902Y2125116D01*
X5935167Y2125878D01*
X5946190Y2127910D01*
X5958738Y2130704D01*
X5971235Y2133803D01*
X5978448Y2135174D01*
X5994247Y2137308D01*
X6002223Y2138019D01*
X6009944Y2138426D01*
X6017056Y2138527D01*
X6023254Y2138324D01*
X6029350Y2137765D01*
X6035040Y2136902D01*
X6040424Y2135733D01*
X6045454Y2134260D01*
X6050127Y2132431D01*
X6054598Y2130298D01*
X6058712Y2127758D01*
X6062624Y2124862D01*
X6066332Y2121560D01*
X6069787Y2117852D01*
X6073038Y2113686D01*
X6076188Y2109114D01*
X6079134Y2104034D01*
X6081979Y2098446D01*
X6087414Y2085848D01*
X6094933Y2066645D01*
X6096152Y2062988D01*
X6097168Y2058212D01*
X6097879Y2052523D01*
X6098692Y2039112D01*
X6098540Y2024329D01*
X6097524Y2009749D01*
X6096660Y2003043D01*
X6095593Y1996948D01*
X6094272Y1991715D01*
X6092190Y1985467D01*
X6089396Y1978406D01*
X6082538Y1963623D01*
X6078931Y1956765D01*
X6075476Y1950770D01*
X6072428Y1946097D01*
X6069939Y1943252D01*
X6066891Y1941017D01*
X6062472Y1938426D01*
X6057239Y1935683D01*
X6039510Y1927606D01*
X6036056Y1925472D01*
X6032144Y1924557D01*
X6026810Y1923897D01*
X6020460Y1923542D01*
X6013500Y1923542D01*
X6006236Y1923846D01*
X5999124Y1924557D01*
X5992469Y1925574D01*
X5974130Y1929384D01*
X5955792Y1933600D01*
X5940755Y1937512D01*
X5935472Y1939086D01*
X5932170Y1940306D01*
X5929376Y1941068D01*
X5925058Y1941626D01*
X5919876Y1941880D01*
X5900826Y1941169D01*
X5898388Y1935378D01*
X5897321Y1931009D01*
X5896559Y1923745D01*
X5896152Y1913331D01*
X5896000Y1869389D01*
X5901740Y1857603D01*
X5904280Y1852980D01*
X5907024Y1848764D01*
X5910021Y1845106D01*
X5913272Y1841855D01*
X5916828Y1839112D01*
X5920689Y1836775D01*
X5924804Y1834896D01*
X5961786Y1823923D01*
X5974994Y1820519D01*
X5987846Y1817827D01*
X6000496Y1815795D01*
X6013043Y1814423D01*
X6025489Y1813763D01*
X6037478Y1813712D01*
X6049822Y1814322D01*
X6062421Y1815388D01*
X6074359Y1816912D01*
X6084773Y1818741D01*
X6092850Y1820722D01*
X6104686Y1825040D01*
X6134455Y1834235D01*
X6140297Y1836369D01*
X6145022Y1838401D01*
X6148882Y1840382D01*
X6152134Y1842414D01*
X6166002Y1852879D01*
X6172606Y1857451D01*
X6176772Y1860905D01*
X6181140Y1864969D01*
X6190081Y1874520D01*
X6194450Y1879701D01*
X6202375Y1890166D01*
X6205728Y1895195D01*
X6208522Y1899869D01*
X6210604Y1904085D01*
X6213297Y1911756D01*
X6218631Y1924151D01*
X6223914Y1935022D01*
X6227419Y1943354D01*
X6230416Y1952091D01*
X6232855Y1961388D01*
X6234785Y1971497D01*
X6236309Y1982724D01*
X6237478Y1995322D01*
X6238290Y2009495D01*
X6238798Y2025954D01*
X6238798Y2042871D01*
X6238240Y2058771D01*
X6237173Y2073198D01*
X6235598Y2085593D01*
X6234684Y2090877D01*
X6230721Y2105456D01*
X6229553Y2112416D01*
X6228334Y2115362D01*
X6226606Y2118766D01*
X6222187Y2125929D01*
X6219952Y2130094D01*
X6218072Y2134209D01*
X6215481Y2141474D01*
X6211112Y2151126D01*
X6202578Y2167382D01*
X6198565Y2171903D01*
X6183579Y2187194D01*
X6179210Y2192121D01*
X6176264Y2195931D01*
X6175197Y2198116D01*
X6174943Y2199335D01*
X6174232Y2200503D01*
X6173216Y2201519D01*
X6160770Y2208174D01*
X6137452Y2221941D01*
X6125718Y2229307D01*
X6119215Y2232558D01*
X6112052Y2234946D01*
X6102604Y2237282D01*
X6089954Y2239772D01*
X6075019Y2242058D01*
X6059373Y2244039D01*
X6044539Y2245461D01*
X6032652Y2246020D01*
G37*
D10*
X9474200Y30226D02*
G01*
X9382759Y-290068D01*
X9291320Y30226D02*
G01*
X9382759Y-290068D01*
X9291320Y30226D02*
G01*
X9199625Y-290068D01*
X9108186Y30226D02*
G01*
X9199625Y-290068D01*
X8957309Y30226D02*
G01*
X8865870Y-290068D01*
X8774175Y30226D02*
G01*
X8865870Y-290068D01*
X8774175Y30226D02*
G01*
X8682736Y-290068D01*
X8591295Y30226D02*
G01*
X8682736Y-290068D01*
X8440420Y30226D02*
G01*
X8348979Y-290068D01*
X8257286Y30226D02*
G01*
X8348979Y-290068D01*
X8257286Y30226D02*
G01*
X8165845Y-290068D01*
X8074406Y30226D02*
G01*
X8165845Y-290068D01*
X7900670Y-175768D02*
G01*
X7923529Y-198628D01*
X7900670Y-221487D01*
X7877809Y-198628D01*
X7900670Y-175768D01*
X7726679Y30226D02*
G01*
X7726679Y-450087D01*
X7726679Y-38354D02*
G01*
X7680959Y7365D01*
X7635240Y30226D01*
X7566659Y30226D01*
X7520940Y7365D01*
X7475220Y-38354D01*
X7452359Y-107187D01*
X7452359Y-152907D01*
X7475220Y-221487D01*
X7520940Y-267207D01*
X7566659Y-290068D01*
X7635240Y-290068D01*
X7680959Y-267207D01*
X7726679Y-221487D01*
X7301229Y30226D02*
G01*
X7301229Y-290068D01*
X7301229Y-107187D02*
G01*
X7278370Y-38354D01*
X7232650Y7365D01*
X7186929Y30226D01*
X7118350Y30226D01*
X6692900Y30226D02*
G01*
X6692900Y-290068D01*
X6692900Y-38354D02*
G01*
X6738620Y7365D01*
X6784340Y30226D01*
X6852920Y30226D01*
X6898640Y7365D01*
X6944359Y-38354D01*
X6967474Y-107187D01*
X6967474Y-152907D01*
X6944359Y-221487D01*
X6898640Y-267207D01*
X6852920Y-290068D01*
X6784340Y-290068D01*
X6738620Y-267207D01*
X6692900Y-221487D01*
X6267450Y-38354D02*
G01*
X6313170Y7365D01*
X6358890Y30226D01*
X6427470Y30226D01*
X6473190Y7365D01*
X6519163Y-38354D01*
X6542024Y-107187D01*
X6542024Y-152907D01*
X6519163Y-221487D01*
X6473190Y-267207D01*
X6427470Y-290068D01*
X6358890Y-290068D01*
X6313170Y-267207D01*
X6267450Y-221487D01*
X6047993Y190245D02*
G01*
X6047993Y-198628D01*
X6024879Y-267207D01*
X5979159Y-290068D01*
X5933440Y-290068D01*
X6116574Y30226D02*
G01*
X5956300Y30226D01*
X5507990Y30226D02*
G01*
X5507990Y-290068D01*
X5507990Y-38354D02*
G01*
X5553709Y7365D01*
X5599684Y30226D01*
X5668263Y30226D01*
X5713984Y7365D01*
X5759704Y-38354D01*
X5782563Y-107187D01*
X5782563Y-152907D01*
X5759704Y-221487D01*
X5713984Y-267207D01*
X5668263Y-290068D01*
X5599684Y-290068D01*
X5553709Y-267207D01*
X5507990Y-221487D01*
X5082540Y-38354D02*
G01*
X5128513Y7365D01*
X5174234Y30226D01*
X5242813Y30226D01*
X5288534Y7365D01*
X5334254Y-38354D01*
X5357113Y-107187D01*
X5357113Y-152907D01*
X5334254Y-221487D01*
X5288534Y-267207D01*
X5242813Y-290068D01*
X5174234Y-290068D01*
X5128513Y-267207D01*
X5082540Y-221487D01*
X4931663Y-107187D02*
G01*
X4657090Y-107187D01*
X4657090Y-61213D01*
X4680204Y-15494D01*
X4703063Y7365D01*
X4748784Y30226D01*
X4817363Y30226D01*
X4863084Y7365D01*
X4908804Y-38354D01*
X4931663Y-107187D01*
X4931663Y-152907D01*
X4908804Y-221487D01*
X4863084Y-267207D01*
X4817363Y-290068D01*
X4748784Y-290068D01*
X4703063Y-267207D01*
X4657090Y-221487D01*
X4506213Y30226D02*
G01*
X4506213Y-290068D01*
X4506213Y-61213D02*
G01*
X4437634Y7365D01*
X4391913Y30226D01*
X4323334Y30226D01*
X4277613Y7365D01*
X4254754Y-61213D01*
X4254754Y-290068D01*
X4254754Y-61213D02*
G01*
X4185920Y7365D01*
X4140200Y30226D01*
X4071620Y30226D01*
X4025900Y7365D01*
X4003040Y-61213D01*
X4003040Y-290068D01*
X3852163Y30226D02*
G01*
X3852163Y-198628D01*
X3829304Y-267207D01*
X3783584Y-290068D01*
X3714750Y-290068D01*
X3669029Y-267207D01*
X3600450Y-198628D01*
X3600450Y30226D02*
G01*
X3600450Y-290068D01*
X3197859Y-38354D02*
G01*
X3220720Y7365D01*
X3289300Y30226D01*
X3358134Y30226D01*
X3426713Y7365D01*
X3449574Y-38354D01*
X3426713Y-84073D01*
X3380993Y-107187D01*
X3266440Y-130047D01*
X3220720Y-152907D01*
X3197859Y-198628D01*
X3197859Y-221487D01*
X3220720Y-267207D01*
X3289300Y-290068D01*
X3358134Y-290068D01*
X3426713Y-267207D01*
X3449574Y-221487D01*
X3046984Y190245D02*
G01*
X3024124Y167386D01*
X3001263Y190245D01*
X3024124Y213105D01*
X3046984Y190245D01*
X3024124Y30226D02*
G01*
X3024124Y-290068D01*
X2575813Y-38354D02*
G01*
X2621534Y7365D01*
X2667254Y30226D01*
X2735834Y30226D01*
X2781554Y7365D01*
X2827274Y-38354D01*
X2850388Y-107187D01*
X2850388Y-152907D01*
X2827274Y-221487D01*
X2781554Y-267207D01*
X2735834Y-290068D01*
X2667254Y-290068D01*
X2621534Y-267207D01*
X2575813Y-221487D01*
X2402077Y-175768D02*
G01*
X2424938Y-198628D01*
X2402077Y-221487D01*
X2379218Y-198628D01*
X2402077Y-175768D01*
X1953768Y-38354D02*
G01*
X1999488Y7365D01*
X2045208Y30226D01*
X2113788Y30226D01*
X2159508Y7365D01*
X2205227Y-38354D01*
X2228088Y-107187D01*
X2228088Y-152907D01*
X2205227Y-221487D01*
X2159508Y-267207D01*
X2113788Y-290068D01*
X2045208Y-290068D01*
X1999488Y-267207D01*
X1953768Y-221487D01*
X1688337Y30226D02*
G01*
X1734057Y7365D01*
X1779778Y-38354D01*
X1802637Y-107187D01*
X1802637Y-152907D01*
X1779778Y-221487D01*
X1734057Y-267207D01*
X1688337Y-290068D01*
X1619757Y-290068D01*
X1574037Y-267207D01*
X1528318Y-221487D01*
X1505457Y-152907D01*
X1505457Y-107187D01*
X1528318Y-38354D01*
X1574037Y7365D01*
X1619757Y30226D01*
X1688337Y30226D01*
X1354328Y30226D02*
G01*
X1354328Y-290068D01*
X1354328Y-61213D02*
G01*
X1285747Y7365D01*
X1240028Y30226D01*
X1171447Y30226D01*
X1125728Y7365D01*
X1102868Y-61213D01*
X1102868Y-290068D01*
X1102868Y-61213D02*
G01*
X1034287Y7365D01*
X988313Y30226D01*
X919734Y30226D01*
X874013Y7365D01*
X851154Y-61213D01*
X851154Y-290068D01*
M02*
