G04 Layer: TopLayer*
G04 EasyEDA v6.5.44, 2024-08-09 16:29:29*
G04 6a14bbe4783e4c45b3198a44848b54db,9d7ba2091113474d8fe43b4f46ca5270,10*
G04 Gerber Generator version 0.2*
G04 Scale: 100 percent, Rotated: No, Reflected: No *
G04 Dimensions in millimeters *
G04 leading zeros omitted , absolute positions ,4 integer and 5 decimal *
%FSLAX45Y45*%
%MOMM*%

%AMMACRO1*21,1,$1,$2,0,0,$3*%
%ADD10C,0.2540*%
%ADD11C,0.3000*%
%ADD12R,0.7501X0.3000*%
%ADD13MACRO1,5.4X2.01X-90.0000*%
%ADD14MACRO1,1X1.3995X-90.0000*%
%ADD15R,1.3995X1.0000*%
%ADD16R,0.2800X0.5000*%
%ADD17R,0.4500X0.3000*%
%ADD18R,0.3000X0.3000*%
%ADD19C,0.8080*%
%ADD20C,2.3000*%
%ADD21C,0.6096*%

%LPD*%
D10*
X3606802Y1802917D02*
G01*
X3454400Y1650514D01*
X3479800Y1104900D01*
X3479800Y1066800D01*
X3479800Y609600D01*
X3505200Y584200D01*
X4406900Y584200D01*
X4394200Y596900D01*
X4394200Y1409700D01*
X4346295Y1361795D01*
X4114800Y1361795D01*
X3416300Y1943100D02*
G01*
X3546807Y1943094D01*
X4114802Y3311804D02*
G01*
X3789199Y3311804D01*
X3581402Y3104006D01*
X3581402Y3026029D02*
G01*
X3581402Y3104006D01*
X4195015Y1028700D02*
G01*
X4195015Y1326667D01*
X4114802Y1361795D02*
G01*
X4149930Y1326667D01*
X4195015Y1326667D01*
X3606802Y1802917D02*
G01*
X3606802Y1878101D01*
X3556815Y2008098D02*
G01*
X3556815Y2061057D01*
X3606802Y2008098D02*
G01*
X3606802Y2034590D01*
X3656815Y2008098D02*
G01*
X3656815Y2061057D01*
X3606802Y2053666D02*
G01*
X3606802Y2061057D01*
X3606802Y2034590D02*
G01*
X3606802Y2053666D01*
X3581402Y2061057D02*
G01*
X3581402Y2815970D01*
X3556815Y2061057D02*
G01*
X3581402Y2061057D01*
X3581402Y2061057D02*
G01*
X3606802Y2061057D01*
X3606802Y2053666D02*
G01*
X3614193Y2061057D01*
X3656815Y2061057D01*
X3678989Y1326667D02*
G01*
X3717394Y1365072D01*
X3717394Y1978812D01*
X3688107Y2008098D01*
X3656815Y2008098D01*
X3678989Y1028700D02*
G01*
X3678989Y1326667D01*
X3035302Y1816100D02*
G01*
X3076298Y1816100D01*
X3092808Y1799589D01*
X3092808Y-250393D01*
X3092706Y-252856D01*
X3092401Y-255295D01*
X3091893Y-257708D01*
X3091207Y-260095D01*
X3090293Y-262381D01*
X3089226Y-264617D01*
X3087956Y-266725D01*
X3086534Y-268731D01*
X3084959Y-270637D01*
X3083206Y-272389D01*
X3081327Y-273989D01*
X3079346Y-275437D01*
X3077212Y-276707D01*
X3075002Y-277799D01*
X3072716Y-278714D01*
X3070354Y-279425D01*
X3067941Y-279933D01*
X3065503Y-280263D01*
X3063039Y-280390D01*
X3062810Y-280390D01*
X3556815Y1878101D02*
G01*
X3395372Y1878101D01*
D11*
X1072794Y4009593D02*
G01*
X1072794Y-250393D01*
X1012799Y4009593D02*
G01*
X1012799Y-250393D01*
X952804Y4009593D02*
G01*
X952804Y-250393D01*
X892810Y4009593D02*
G01*
X892810Y-250393D01*
X832815Y4009593D02*
G01*
X832815Y-250393D01*
X3062808Y4039590D02*
G01*
X1102791Y4039590D01*
X3062808Y4099585D02*
G01*
X1102791Y4099585D01*
X3062808Y4159605D02*
G01*
X1102791Y4159605D01*
X3062808Y4219600D02*
G01*
X1102791Y4219600D01*
X3062808Y4279595D02*
G01*
X1102791Y4279595D01*
X3062808Y-280390D02*
G01*
X1102791Y-280390D01*
X3062808Y-340385D02*
G01*
X1102791Y-340385D01*
X3062808Y-400405D02*
G01*
X1102791Y-400405D01*
X3062808Y-460400D02*
G01*
X1102791Y-460400D01*
X3062808Y-520395D02*
G01*
X1102791Y-520395D01*
X3092805Y4009593D02*
G01*
X3092805Y1879600D01*
X3152800Y1819605D01*
X3152800Y-250393D01*
X3212795Y4009593D02*
G01*
X3212795Y1919604D01*
X3272790Y1859610D01*
X3272790Y-250393D01*
X3152800Y4009593D02*
G01*
X3152800Y1899589D01*
X3212795Y1839595D01*
X3212795Y-250393D01*
X3272790Y4009593D02*
G01*
X3272790Y1939594D01*
X3332810Y1879600D01*
X3332810Y-250393D01*
X3092805Y-250393D02*
G01*
X3092805Y1799589D01*
X3076295Y1816100D01*
X3035300Y1816100D01*
X3429000Y1943100D02*
G01*
X3416300Y1943100D01*
X3349294Y1943100D01*
X3332810Y1959610D01*
X3332810Y4009593D01*
D12*
G01*
X3416300Y1943100D03*
D13*
G01*
X3678999Y1028700D03*
G01*
X4195000Y1028700D03*
D14*
G01*
X3581400Y3026028D03*
D15*
G01*
X3581400Y2815970D03*
D16*
G01*
X3556815Y1878096D03*
G01*
X3606802Y1878096D03*
G01*
X3656789Y1878096D03*
D17*
G01*
X3666797Y1943094D03*
D16*
G01*
X3656815Y2008093D03*
G01*
X3606802Y2008093D03*
G01*
X3556815Y2008093D03*
D17*
G01*
X3546807Y1943094D03*
D18*
G01*
X3606802Y1943094D03*
D11*
G75*
G01*
X3092806Y-250393D02*
G02*
X3062808Y-280391I-29998J0D01*
G75*
G01*
X3152800Y-250393D02*
G02*
X3062808Y-340385I-89992J0D01*
G75*
G01*
X3212795Y-250393D02*
G02*
X3062808Y-400406I-149987J-26D01*
G75*
G01*
X3272790Y-250393D02*
G02*
X3062808Y-460400I-210007J0D01*
G75*
G01*
X3332810Y-250393D02*
G02*
X3062808Y-520395I-270002J0D01*
G75*
G01*
X3092806Y4009593D02*
G03*
X3062808Y4039591I-29998J0D01*
G75*
G01*
X3152800Y4009593D02*
G03*
X3062808Y4099585I-89992J0D01*
G75*
G01*
X3212795Y4009593D02*
G03*
X3062808Y4159606I-149987J26D01*
G75*
G01*
X3272790Y4009593D02*
G03*
X3062808Y4219600I-210007J0D01*
G75*
G01*
X3332810Y4009593D02*
G03*
X3062808Y4279595I-270002J0D01*
G75*
G01*
X1072794Y4009593D02*
G02*
X1102792Y4039591I29998J0D01*
G75*
G01*
X1012800Y4009593D02*
G02*
X1102792Y4099585I89992J0D01*
G75*
G01*
X952805Y4009593D02*
G02*
X1102792Y4159606I149987J26D01*
G75*
G01*
X892810Y4009593D02*
G02*
X1102792Y4219600I210007J0D01*
G75*
G01*
X832790Y4009593D02*
G02*
X1102792Y4279595I270002J0D01*
G75*
G01*
X1072794Y-250393D02*
G03*
X1102792Y-280391I29998J0D01*
G75*
G01*
X1012800Y-250393D02*
G03*
X1102792Y-340385I89992J0D01*
G75*
G01*
X952805Y-250393D02*
G03*
X1102792Y-400406I149987J-26D01*
G75*
G01*
X892810Y-250393D02*
G03*
X1102792Y-460400I210007J0D01*
G75*
G01*
X832790Y-250393D02*
G03*
X1102792Y-520395I270002J0D01*
D19*
G01*
X3035300Y1816100D03*
D20*
G01*
X4114800Y3311804D03*
G01*
X4114800Y1361795D03*
D21*
G01*
X3395372Y1878101D03*
G01*
X3606802Y1802917D03*
M02*
